<svg width="24" height="29" fill="none" xmlns="http://www.w3.org/2000/svg"><path d="M12.34.753c-3.787 0-6.867 3.224-6.867 7.186 0 3.963 3.08 7.186 6.867 7.186 3.786 0 6.866-3.223 6.866-7.186 0-3.962-3.08-7.186-6.866-7.186zm0 12.775c-2.945 0-5.341-2.507-5.341-5.589 0-3.082 2.396-5.589 5.34-5.589 2.945 0 5.341 2.507 5.341 5.59 0 3.081-2.396 5.588-5.34 5.588zm8.543 6.292c-1.88-1.998-4.372-3.098-7.017-3.098h-3.052c-2.646 0-5.138 1.1-7.018 3.098-1.87 1.988-2.9 4.612-2.9 7.389 0 .44.34.798.762.798h21.363c.421 0 .763-.357.763-.798 0-2.777-1.03-5.401-2.9-7.389zM2.455 26.41c.382-4.529 3.985-8.09 8.359-8.09h3.052c4.373 0 7.976 3.561 8.359 8.09H2.455z" fill="#FEFEFE"/></svg>