<svg width="27" height="29" fill="none" xmlns="http://www.w3.org/2000/svg"><path d="M18.407 21.8v2.135c0 2.354-1.83 4.269-4.08 4.269H4.08c-2.251 0-4.08-1.915-4.08-4.269V5.152C0 2.8 1.83.884 4.079.884h10.249c2.249 0 4.079 1.915 4.079 4.268v2.135c0 .59-.457 1.067-1.02 1.067s-1.02-.478-1.02-1.067V5.152c0-1.176-.915-2.134-2.04-2.134H4.08c-1.124 0-2.04.958-2.04 2.134v18.783c0 1.177.916 2.134 2.04 2.134h10.249c1.124 0 2.04-.957 2.04-2.134v-2.134c0-.59.456-1.067 1.019-1.067s1.02.477 1.02 1.067zm6.952-9.09l-2.283-2.39a.988.988 0 00-1.442 0 1.102 1.102 0 000 1.51l1.624 1.7H11.013c-.563 0-1.02.478-1.02 1.067 0 .59.457 1.067 1.02 1.067h12.245l-1.624 1.7a1.102 1.102 0 000 1.51c.199.208.46.312.72.312a.994.994 0 00.722-.313l2.283-2.39c.994-1.04.994-2.732 0-3.773z" fill="#FEFEFE"/></svg>