<svg width="23" height="33" fill="none" xmlns="http://www.w3.org/2000/svg"><g clip-path="url(#clip0)"><path d="M6.167 32.488a5.336 5.336 0 005.334-5.334V21.82H6.167a5.336 5.336 0 00-5.334 5.334 5.336 5.336 0 005.334 5.334z" fill="#0ACF83"/><path d="M.833 16.488a5.336 5.336 0 015.334-5.334H11.5V21.82H6.167a5.334 5.334 0 01-5.334-5.332z" fill="#A259FF"/><path d="M.833 5.822A5.336 5.336 0 016.167.488H11.5v10.666H6.167A5.335 5.335 0 01.833 5.822z" fill="#F24E1E"/><path d="M11.5.488h5.333a5.336 5.336 0 015.334 5.334 5.335 5.335 0 01-5.334 5.332h-5.334V.488z" fill="#FF7262"/><path d="M22.167 16.488a5.336 5.336 0 01-5.334 5.334 5.336 5.336 0 01-5.334-5.334 5.336 5.336 0 015.334-5.334 5.336 5.336 0 015.334 5.334z" fill="#1ABCFE"/></g><defs><clipPath id="clip0"><path fill="#fff" transform="translate(.833 .488)" d="M0 0h21.334v32H0z"/></clipPath></defs></svg>