<svg width="16" height="17" fill="none" xmlns="http://www.w3.org/2000/svg"><g clip-path="url(#clip0)" fill="#171717"><path d="M11.745 8.28c-.072 1.043-.666 1.774-1.352 2.084-.728.329-1.463.148-1.83-.451-.601-.98-.188-1.662.211-2.322.453-.748.966-1.596.474-3.245-.389-1.302-1.15-2.395-2.262-3.248a6.988 6.988 0 00-.943-.61c.373.908.858 2.596.351 4.462-.321 1.184-1.17 2.08-1.991 2.948-1.081 1.143-2.2 2.324-2.2 4.211 0 1.464.51 2.631 1.517 3.467.762.633 1.539.88 1.547.882h1.855-.039c-.007-.006-.714-.564-.726-1.204-.006-.299.151-.586.466-.852.474-.401.734-.832.796-1.32.038-.297 0-.611-.117-.951.785.33 1.597 1.048 1.873 1.94.247.802.018 1.627-.66 2.387h2.03c1.33-1.042 2.078-2.29 2.225-3.71.187-1.812-.641-3.518-1.225-4.467zm-4.623 8.178l1.565.03.027-.03H7.122z"/></g><defs><clipPath id="clip0"><path fill="#fff" transform="translate(0 .488)" d="M0 0h15.2v16H0z"/></clipPath></defs></svg>