<svg width="27" height="28" fill="none" xmlns="http://www.w3.org/2000/svg"><path d="M25.64 12.3l-.002-.002L15.032 1.199A2.325 2.325 0 0013.34.465c-.64 0-1.24.26-1.693.734l-10.6 11.093-.011.012c-.928.977-.927 2.562.005 3.537a2.331 2.331 0 001.662.734h.422v8.168c0 1.616 1.257 2.931 2.802 2.931h4.15c.42 0 .761-.357.761-.797v-6.403c0-.738.573-1.338 1.278-1.338h2.447c.705 0 1.278.6 1.278 1.338v6.403c0 .44.342.797.762.797h4.15c1.544 0 2.801-1.315 2.801-2.931v-8.168h.392c.64 0 1.24-.26 1.693-.734.932-.976.933-2.564 0-3.541z" fill="#FEFEFE"/></svg>