<svg width="29" height="24" fill="none" xmlns="http://www.w3.org/2000/svg"><path d="M26.561 14.55V6.725l.31-.098c1.194-.375 1.444-1.01 1.444-1.476 0-.466-.25-1.1-1.444-1.475L16.66.47c-.63-.198-1.454-.306-2.321-.306-.868 0-1.692.108-2.321.306L1.806 3.676C.612 4.05.362 4.685.362 5.15c0 .467.25 1.101 1.444 1.476l3.819 1.2v6.46c0 .802.498 1.932 2.872 2.76 1.573.549 3.647.851 5.842.851 2.194 0 4.269-.302 5.841-.85 2.374-.829 2.872-1.959 2.872-2.761v-6.46l1.871-.588v7.311c-1.018.36-1.754 1.367-1.754 2.553v3.672c0 1.485 1.154 2.693 2.573 2.693s2.573-1.208 2.573-2.693v-3.672c0-1.186-.735-2.194-1.754-2.553zM12.488 2.112c.474-.15 1.148-.234 1.85-.234.703 0 1.378.085 1.851.233l9.683 3.04-3.878 1.218-.007.002-5.798 1.82c-.473.15-1.148.234-1.85.234-.703 0-1.377-.085-1.85-.234L6.69 6.371l-.006-.002L2.806 5.15l9.682-3.04zm8.926 9.924c0 2.362-.297 2.878-1.752 3.385-1.41.492-3.3.763-5.323.763-2.023 0-3.914-.27-5.324-.763-1.455-.507-1.752-1.024-1.752-1.134V8.34l4.755 1.493c.629.198 1.453.306 2.32.306.868 0 1.693-.108 2.322-.306l4.754-1.493v3.696zm5.264 8.739c0 .54-.42.979-.936.979s-.935-.44-.935-.98v-3.671c0-.54.42-.98.935-.98.516 0 .936.44.936.98v3.672z" fill="#FEFEFE"/></svg>