<svg width="27" height="25" fill="none" xmlns="http://www.w3.org/2000/svg"><path d="M23.335.823H2.972C1.436.823.186 2.13.186 3.738v13.995c0 1.608 1.25 2.916 2.786 2.916h6.56c.08 0 .157.04.204.107l2.394 3.397c.24.34.61.536 1.013.538h.006c.402 0 .77-.192 1.012-.529l2.448-3.407a.25.25 0 01.203-.106h6.523c1.537 0 2.786-1.308 2.786-2.916V3.738c0-1.608-1.25-2.915-2.786-2.915zm1.267 16.91c0 .125-.017.246-.048.361l-7.807-7.16 7.855-6.822v13.621zm-1.267-15.32c.232 0 .45.066.636.18l-10.007 8.69a1.224 1.224 0 01-1.617 0L2.34 2.591c.186-.113.402-.178.633-.178h20.363zM1.754 18.094a1.379 1.379 0 01-.048-.36V4.107l7.856 6.823-7.808 7.163zm13.64 1.705l-2.243 3.123-2.192-3.11a1.755 1.755 0 00-1.427-.754H3.008l7.738-7.098.63.547a2.706 2.706 0 001.78.671c.632 0 1.263-.223 1.779-.671l.628-.546 7.736 7.097h-6.487c-.555 0-1.084.277-1.417.74z" fill="#FEFEFE"/></svg>