<svg width="33" height="33" fill="none" xmlns="http://www.w3.org/2000/svg"><path d="M31.647 6.048l-4.363-4.367c-1.1-1.1-3.012-1.103-4.116.002L3.62 21.424a.732.732 0 00-.184.313L.527 31.927a.729.729 0 00.9.9l10.181-2.911a.731.731 0 00.313-.184l19.726-19.567c.55-.55.853-1.28.853-2.058 0-.778-.303-1.509-.853-2.059z" fill="#171717"/><path d="M8.694 23.628L7.691 21.62a.728.728 0 00-.65-.402H5.876L19.994 6.973l2.678 2.677L8.694 23.628zm3.036 2.032l-2.007-1.004L23.7 10.679l2.677 2.677-14.245 14.118V26.31a.728.728 0 00-.402-.65z" fill="#FFCA28"/><path d="M24.194 2.736c.55-.55 1.507-.55 2.057 0l4.364 4.363c.275.275.426.64.426 1.029 0 .388-.151.753-.424 1.026l-3.207 3.178-6.392-6.392 3.176-3.204z" fill="#D32F2F"/><path d="M8.174 25.509a1.43 1.43 0 01-.325-.325l-1.253-2.507H4.684l-1.618 5.666 2.028 1.927 5.588-1.596v-1.911l-2.508-1.254z" fill="#F2F2F2"/><path d="M5.094 30.27l-2.028-1.927.167-.587-.947 3.316 3.316-.947-.508.145z" fill="#171717"/><path opacity=".1" d="M10.681 26.763l-2.507-1.254c-.07-.035-.107-.108-.162-.163l-5.726 5.726 8.396-2.398v-1.911zM28.437 4.921L24.218 9.14l3.197 3.196 3.206-3.178c.273-.273.424-.638.424-1.027 0-.388-.151-.753-.426-1.028L28.437 4.92zM11.734 25.663l-2.007-1.004 13.977-13.977 2.677 2.678-14.245 14.118v-1.165a.728.728 0 00-.402-.65z" fill="#171717"/><path d="M31.647 6.048l-4.363-4.367c-1.1-1.1-3.012-1.103-4.116.002L3.62 21.424a.732.732 0 00-.184.313L.527 31.927a.729.729 0 00.9.9l10.181-2.911a.731.731 0 00.313-.184l19.726-19.567c.55-.55.853-1.28.853-2.058 0-.778-.303-1.509-.853-2.059z" fill="url(#paint0_linear)"/><defs><linearGradient id="paint0_linear" x1="7.091" y1="13.877" x2="26.005" y2="22.692" gradientUnits="userSpaceOnUse"><stop stop-color="#fff" stop-opacity=".2"/><stop offset="1" stop-color="#fff" stop-opacity="0"/></linearGradient></defs></svg>