<svg width="33" height="33" fill="none" xmlns="http://www.w3.org/2000/svg"><path d="M27.098 32.488H5.902A5.807 5.807 0 01.09 26.676V6.3A5.807 5.807 0 015.902.488h21.196A5.807 5.807 0 0132.91 6.3v20.376a5.807 5.807 0 01-5.812 5.812z" fill="#26C9FF"/><path d="M26.579 31.12H6.422c-2.736 0-4.965-2.229-4.965-4.977V6.833c0-2.748 2.23-4.977 4.965-4.977h20.143A4.964 4.964 0 0131.53 6.82v19.323a4.955 4.955 0 01-4.95 4.977z" fill="#062026"/><path d="M8.021 7.982c0-.096.192-.164.301-.164a81.687 81.687 0 013.529-.068c3.788 0 5.264 2.078 5.264 4.745 0 3.473-2.516 4.964-5.606 4.964-.52 0-.698-.027-1.067-.027v5.25c0 .11-.041.165-.164.165H8.186c-.11 0-.165-.041-.165-.164v-14.7zm2.435 7.262c.314.027.56.027 1.107.027 1.6 0 3.105-.56 3.105-2.735 0-1.737-1.08-2.612-2.9-2.612-.546 0-1.066.027-1.312.041v5.279zm11.76-1.628c-1.08 0-1.45.547-1.45.998 0 .493.247.835 1.697 1.587 2.146 1.04 2.817 2.037 2.817 3.5 0 2.189-1.669 3.365-3.925 3.365-1.19 0-2.216-.246-2.804-.588-.095-.041-.109-.11-.109-.219v-2.01c0-.137.068-.178.164-.11a5.075 5.075 0 002.749.807c1.08 0 1.531-.451 1.531-1.067 0-.492-.314-.93-1.695-1.64-1.942-.93-2.749-1.874-2.749-3.447 0-1.764 1.381-3.227 3.774-3.227 1.176 0 1.997.178 2.448.383.11.068.137.178.137.273v1.874c0 .11-.068.178-.205.137-.602-.383-1.49-.616-2.38-.616z" fill="#D9F5FF"/></svg>