<svg width="27" height="29" fill="none" xmlns="http://www.w3.org/2000/svg"><path d="M13.97 28.069h-1.632c-1.32 0-2.394-1.124-2.394-2.505v-.578a10.245 10.245 0 01-1.63-.707l-.39.409a2.319 2.319 0 01-3.386 0L3.384 23.48c-.921-.964-.948-2.552 0-3.543l.392-.41a11.277 11.277 0 01-.677-1.705h-.552c-1.32 0-2.393-1.124-2.393-2.505V13.61c0-1.382 1.073-2.505 2.393-2.505H3.1c.18-.588.406-1.158.677-1.706l-.391-.41c-.948-.99-.922-2.578 0-3.542L4.538 4.24a2.319 2.319 0 013.386 0l.39.41c.524-.284 1.07-.521 1.63-.709v-.577c0-1.382 1.074-2.505 2.394-2.505h1.632c1.32 0 2.393 1.123 2.393 2.505v.577c.561.188 1.106.425 1.63.708l.391-.41a2.319 2.319 0 013.386.001l1.153 1.207c.922.964.948 2.551 0 3.543l-.391.409c.27.548.497 1.118.676 1.706h.552c1.32 0 2.394 1.123 2.394 2.505v1.707c0 1.381-1.074 2.505-2.394 2.505h-.552a11.36 11.36 0 01-.676 1.706l.39.41c.949.99.923 2.578 0 3.542l-1.153 1.207a2.32 2.32 0 01-3.385 0l-.391-.41c-.524.284-1.069.521-1.63.709v.577c0 1.381-1.074 2.505-2.393 2.505zm-5.401-5.465c.728.45 1.51.79 2.327 1.011a.792.792 0 01.572.772v1.177c0 .502.39.91.87.91h1.632c.48 0 .87-.408.87-.91v-1.177c0-.363.235-.68.571-.772.817-.22 1.6-.56 2.327-1.01.3-.186.68-.136.927.122l.797.834a.843.843 0 001.23 0l1.154-1.208a.94.94 0 000-1.287l-.797-.834a.825.825 0 01-.117-.97c.43-.761.755-1.58.966-2.435a.769.769 0 01.738-.598h1.124c.48 0 .87-.409.87-.91V13.61c0-.502-.39-.91-.87-.91h-1.124a.769.769 0 01-.738-.599 9.644 9.644 0 00-.966-2.435.825.825 0 01.117-.97l.797-.834a.94.94 0 000-1.287l-1.154-1.208a.843.843 0 00-1.23 0l-.797.834a.736.736 0 01-.927.123 8.764 8.764 0 00-2.327-1.011.792.792 0 01-.571-.772V3.365c0-.503-.39-.911-.87-.911h-1.632c-.48 0-.87.408-.87.91v1.178a.792.792 0 01-.572.771c-.816.221-1.6.561-2.327 1.011a.737.737 0 01-.926-.122l-.797-.834a.843.843 0 00-1.23 0L4.462 6.576a.94.94 0 000 1.287l.796.834a.825.825 0 01.118.97 9.641 9.641 0 00-.967 2.435.769.769 0 01-.737.598H2.547c-.48 0-.87.409-.87.91v1.708c0 .502.39.91.87.91h1.125a.77.77 0 01.737.599c.211.854.536 1.674.966 2.435a.825.825 0 01-.117.97l-.796.834a.94.94 0 000 1.287l1.153 1.207a.842.842 0 001.23 0l.798-.833a.74.74 0 01.926-.123z" fill="#FEFEFE"/><path d="M13.154 20.384c-3.12 0-5.657-2.655-5.657-5.92 0-3.264 2.537-5.92 5.657-5.92 3.119 0 5.657 2.656 5.657 5.92 0 3.265-2.538 5.92-5.657 5.92zm0-10.245c-2.28 0-4.134 1.94-4.134 4.325 0 2.386 1.854 4.326 4.134 4.326 2.279 0 4.133-1.94 4.133-4.326 0-2.385-1.854-4.325-4.133-4.325z" fill="#FEFEFE"/></svg>