<svg width="480" height="267" fill="none" xmlns="http://www.w3.org/2000/svg"><path d="M24.315 259.609l.029.704c.465-.547 1.092-.821 1.88-.821.887 0 1.491.34 1.811 1.02.211-.305.485-.551.82-.738.34-.188.74-.282 1.202-.282 1.39 0 2.098.737 2.12 2.209v4.248h-1.083v-4.183c0-.453-.104-.791-.31-1.014-.208-.226-.555-.34-1.044-.34-.402 0-.736.121-1.002.364-.265.238-.42.56-.462.966v4.207h-1.09v-4.154c0-.922-.451-1.383-1.354-1.383-.71 0-1.197.303-1.459.908v4.629H23.29v-6.34h1.026zm9.216 3.112c0-.621.122-1.18.364-1.676a2.755 2.755 0 011.02-1.148c.437-.27.935-.405 1.493-.405.864 0 1.56.299 2.092.897.535.597.803 1.392.803 2.385v.076c0 .617-.12 1.172-.357 1.664a2.668 2.668 0 01-1.014 1.142c-.438.274-.942.411-1.512.411-.86 0-1.556-.299-2.092-.897-.53-.598-.797-1.389-.797-2.373v-.076zm1.09.129c0 .703.162 1.267.487 1.693.328.426.765.639 1.312.639.55 0 .988-.215 1.313-.645.324-.433.486-1.039.486-1.816 0-.695-.166-1.258-.498-1.688a1.565 1.565 0 00-1.313-.65c-.535 0-.966.213-1.294.639-.329.425-.493 1.035-.493 1.828zm7.067-3.241l.035.797c.484-.609 1.117-.914 1.898-.914 1.34 0 2.016.756 2.028 2.268v4.189h-1.084v-4.195c-.004-.457-.11-.795-.317-1.014-.203-.218-.521-.328-.955-.328-.351 0-.66.094-.926.281a1.912 1.912 0 00-.62.739v4.517h-1.085v-6.34h1.026zM8.69 232.641c0 1.269-.217 2.213-.65 2.83-.434.617-1.112.926-2.034.926-.91 0-1.583-.301-2.021-.903-.438-.605-.664-1.508-.68-2.707v-1.447c0-1.254.217-2.186.65-2.795.434-.609 1.114-.914 2.04-.914.918 0 1.594.295 2.027.885.434.586.656 1.492.668 2.718v1.407zm-1.084-1.483c0-.918-.129-1.586-.387-2.004-.257-.421-.666-.632-1.224-.632-.555 0-.96.209-1.213.627-.254.418-.385 1.06-.393 1.927v1.735c0 .922.133 1.603.399 2.045.27.437.676.656 1.218.656.536 0 .932-.207 1.19-.621.262-.414.398-1.067.41-1.957v-1.776zm-.703-39.805h-1.09v-7.225l-2.185.803v-.984l3.105-1.166h.17v8.572zm2.027-44.926H3.34v-.78l2.954-3.281c.437-.496.738-.898.902-1.207a2.02 2.02 0 00.252-.967c0-.445-.135-.81-.404-1.096-.27-.285-.63-.427-1.079-.427-.539 0-.959.154-1.26.463-.296.304-.445.73-.445 1.277H3.176c0-.785.252-1.42.756-1.904.508-.485 1.186-.727 2.033-.727.793 0 1.42.209 1.881.627.461.414.692.967.692 1.658 0 .84-.535 1.84-1.606 3l-2.285 2.479H8.93v.885zm-4.013-49.72h.814c.512-.008.914-.142 1.207-.404.293-.262.44-.615.44-1.06 0-1-.498-1.5-1.495-1.5-.468 0-.843.134-1.125.404-.277.265-.416.619-.416 1.06H3.258c0-.676.247-1.236.739-1.681.496-.45 1.125-.674 1.886-.674.805 0 1.436.212 1.893.638.457.426.686 1.018.686 1.776 0 .37-.122.73-.364 1.078a2.157 2.157 0 01-.978.78c.469.148.83.394 1.084.737.258.344.386.764.386 1.26 0 .766-.25 1.373-.75 1.822-.5.45-1.15.674-1.95.674-.801 0-1.454-.217-1.958-.65-.5-.434-.75-1.006-.75-1.717h1.09c0 .45.147.809.44 1.078.293.27.685.405 1.177.405.524 0 .924-.137 1.201-.411.278-.273.416-.666.416-1.177 0-.496-.152-.877-.457-1.143-.304-.266-.744-.402-1.318-.41h-.814v-.885zm3-42.999H9.1v.885H7.917v1.98h-1.09v-1.98H2.942v-.639l3.82-5.912h1.155v5.666zm-3.744 0h2.654v-4.183l-.13.234-2.524 3.95zM3.839 7.37l.433-4.254h4.371v1.002H5.192l-.258 2.326a2.755 2.755 0 011.424-.369c.777 0 1.395.258 1.852.773.457.512.685 1.205.685 2.08 0 .88-.238 1.573-.715 2.08-.472.505-1.134.756-1.986.756-.754 0-1.37-.208-1.846-.627-.476-.418-.748-.996-.814-1.734h1.025c.067.488.24.857.522 1.107.28.247.652.37 1.113.37.504 0 .898-.172 1.184-.516.289-.344.433-.818.433-1.424 0-.57-.156-1.027-.469-1.37-.308-.349-.72-.522-1.236-.522-.473 0-.844.103-1.113.31l-.287.235-.867-.223zm93.523 250.704v1.535h1.183v.838h-1.183v3.932c0 .254.052.445.158.574.105.125.285.188.539.188.125 0 .297-.024.515-.071v.879a3.15 3.15 0 01-.832.118c-.484 0-.85-.147-1.095-.44-.247-.293-.37-.709-.37-1.248v-3.932h-1.154v-.838h1.154v-1.535h1.085zm6.369 7.248c-.422.496-1.041.745-1.858.745-.676 0-1.191-.196-1.547-.586-.351-.395-.529-.977-.533-1.747v-4.125h1.084v4.096c0 .961.391 1.442 1.172 1.442.828 0 1.379-.309 1.652-.926v-4.612h1.084v6.34h-1.031l-.023-.627zm5.337.745c-.859 0-1.558-.282-2.097-.844-.539-.567-.809-1.322-.809-2.268v-.199c0-.629.119-1.189.358-1.682a2.82 2.82 0 011.007-1.16 2.54 2.54 0 011.407-.422c.824 0 1.465.272 1.922.815.457.543.685 1.32.685 2.332v.451h-4.295c.016.625.197 1.131.545 1.518.352.382.797.574 1.336.574.383 0 .707-.078.973-.235.265-.156.498-.363.697-.621l.662.516c-.531.816-1.328 1.225-2.391 1.225zm-.134-5.684c-.438 0-.805.16-1.102.48-.297.317-.48.762-.551 1.336h3.176v-.082c-.031-.55-.18-.976-.445-1.277-.266-.305-.625-.457-1.078-.457zm56.969 4.072l1.219-4.846h1.084l-1.846 6.34h-.878l-1.541-4.804-1.5 4.804h-.879l-1.84-6.34h1.078l1.248 4.747 1.477-4.747h.873l1.505 4.846zm6.041 1.612c-.859 0-1.558-.282-2.097-.844-.539-.567-.809-1.322-.809-2.268v-.199c0-.629.119-1.189.358-1.682a2.82 2.82 0 011.007-1.16 2.54 2.54 0 011.407-.422c.824 0 1.465.272 1.922.815.457.543.685 1.32.685 2.332v.451h-4.295c.016.625.197 1.131.545 1.518.352.382.797.574 1.336.574.383 0 .707-.078.973-.235.265-.156.498-.363.697-.621l.662.516c-.531.816-1.328 1.225-2.391 1.225zm-.134-5.684c-.438 0-.805.16-1.102.48-.297.317-.48.762-.551 1.336h3.176v-.082c-.031-.55-.18-.976-.445-1.277-.266-.305-.625-.457-1.078-.457zm3.603 2.344c0-.973.231-1.754.692-2.344.461-.594 1.064-.891 1.81-.891.742 0 1.33.254 1.764.762v-3.305h1.084v9h-.996l-.053-.679c-.434.531-1.037.797-1.811.797-.734 0-1.334-.301-1.798-.903-.461-.601-.692-1.387-.692-2.355v-.082zm1.084.123c0 .718.149 1.281.446 1.687.296.406.707.61 1.23.61.687 0 1.189-.309 1.506-.926v-2.912c-.324-.598-.822-.897-1.494-.897-.532 0-.946.205-1.242.615-.297.411-.446 1.018-.446 1.823zm56.689-4.776v1.535h1.184v.838h-1.184v3.932c0 .254.053.445.158.574.106.125.286.188.54.188.125 0 .296-.024.515-.071v.879a3.146 3.146 0 01-.832.118c-.484 0-.849-.147-1.096-.44-.246-.293-.369-.709-.369-1.248v-3.932h-1.154v-.838h1.154v-1.535h1.084zm3.539 2.303c.481-.59 1.106-.885 1.875-.885 1.34 0 2.016.756 2.028 2.268v4.189h-1.084v-4.195c-.004-.457-.11-.795-.317-1.014-.203-.218-.521-.328-.955-.328-.351 0-.66.094-.926.281a1.923 1.923 0 00-.621.739v4.517h-1.084v-9h1.084v3.428zm9.44 4.945c-.422.496-1.041.745-1.858.745-.675 0-1.191-.196-1.547-.586-.351-.395-.529-.977-.533-1.747v-4.125h1.084v4.096c0 .961.391 1.442 1.172 1.442.828 0 1.379-.309 1.652-.926v-4.612h1.084v6.34h-1.031l-.023-.627zm50.483.627v-5.502h-1.002v-.838h1.002v-.65c0-.68.182-1.205.545-1.576.363-.371.877-.557 1.541-.557.25 0 .498.033.744.1l-.058.879a3.13 3.13 0 00-.586-.053c-.352 0-.623.104-.815.311-.191.203-.287.496-.287.879v.667h1.354v.838h-1.354v5.502h-1.084zm6.703-5.367a3.278 3.278 0 00-.533-.041c-.711 0-1.193.303-1.447.908v4.5h-1.084v-6.34h1.055l.017.733c.356-.566.86-.85 1.512-.85.211 0 .371.028.48.082v1.008zm2.18 5.367h-1.084v-6.34h1.084v6.34zm-1.172-8.021c0-.176.053-.324.158-.445.11-.122.27-.182.481-.182.211 0 .371.06.48.182.11.121.164.269.164.445a.615.615 0 01-.164.439c-.109.117-.269.176-.48.176-.211 0-.371-.059-.481-.176a.633.633 0 01-.158-.439zm52.822 6.34a.79.79 0 00-.334-.68c-.219-.164-.604-.305-1.155-.422-.547-.117-.982-.258-1.306-.422-.321-.164-.559-.359-.715-.586a1.408 1.408 0 01-.229-.808c0-.52.219-.959.657-1.319.441-.359 1.003-.539 1.687-.539.719 0 1.301.186 1.746.557.449.371.674.846.674 1.424h-1.09c0-.297-.127-.553-.381-.768-.25-.215-.566-.322-.949-.322-.394 0-.703.086-.926.258a.813.813 0 00-.334.674c0 .261.104.459.311.591.207.133.58.26 1.119.381.543.121.982.266 1.318.434.336.168.584.371.744.609.165.235.247.522.247.862 0 .566-.227 1.021-.68 1.365-.453.34-1.041.51-1.764.51-.508 0-.957-.09-1.347-.27a2.22 2.22 0 01-.92-.75 1.837 1.837 0 01-.328-1.049h1.084c.019.363.164.653.433.867.274.211.633.317 1.078.317.41 0 .739-.082.985-.246.25-.168.375-.391.375-.668zm6.41 1.681c-.063-.125-.114-.347-.153-.668-.503.524-1.105.786-1.804.786-.625 0-1.139-.176-1.541-.528a1.726 1.726 0 01-.598-1.347c0-.661.25-1.172.75-1.536.504-.367 1.211-.55 2.121-.55h1.055v-.498c0-.379-.113-.68-.34-.903-.227-.226-.561-.34-1.002-.34-.387 0-.711.098-.973.293-.261.196-.392.432-.392.709h-1.09c0-.316.111-.621.334-.914.227-.297.531-.531.914-.703a3.095 3.095 0 011.271-.258c.731 0 1.303.184 1.717.551.414.363.629.865.645 1.506v2.918c0 .582.074 1.045.222 1.389v.093h-1.136zm-1.799-.826c.34 0 .662-.088.967-.264.304-.175.525-.404.662-.685v-1.301h-.85c-1.328 0-1.992.389-1.992 1.166 0 .34.113.606.34.797.226.191.517.287.873.287zm5.883-7.049v1.535h1.183v.838h-1.183v3.932c0 .254.052.445.158.574.105.125.285.188.539.188.125 0 .297-.024.516-.071v.879a3.157 3.157 0 01-.832.118c-.485 0-.85-.147-1.096-.44-.246-.293-.369-.709-.369-1.248v-3.932h-1.155v-.838h1.155v-1.535h1.084zm53.905 6.194c0-.293-.111-.52-.334-.68-.219-.164-.604-.305-1.154-.422-.547-.117-.983-.258-1.307-.422-.32-.164-.559-.359-.715-.586a1.415 1.415 0 01-.228-.808c0-.52.218-.959.656-1.319.441-.359 1.004-.539 1.687-.539.719 0 1.301.186 1.746.557.45.371.674.846.674 1.424h-1.09c0-.297-.127-.553-.38-.768-.25-.215-.567-.322-.95-.322-.394 0-.703.086-.925.258a.81.81 0 00-.334.674c0 .261.103.459.31.591.207.133.58.26 1.119.381.543.121.983.266 1.319.434.336.168.584.371.744.609.164.235.246.522.246.862 0 .566-.227 1.021-.68 1.365-.453.34-1.041.51-1.764.51-.507 0-.957-.09-1.347-.27a2.227 2.227 0 01-.92-.75 1.837 1.837 0 01-.328-1.049h1.084c.019.363.164.653.433.867.274.211.633.317 1.078.317.411 0 .739-.082.985-.246.25-.168.375-.391.375-.668zm6.41 1.054c-.422.496-1.041.745-1.857.745-.676 0-1.192-.196-1.547-.586-.352-.395-.53-.977-.534-1.747v-4.125h1.084v4.096c0 .961.391 1.442 1.172 1.442.828 0 1.379-.309 1.653-.926v-4.612h1.084v6.34h-1.032l-.023-.627zm3.732-5.713l.036.797c.484-.609 1.117-.914 1.898-.914 1.34 0 2.016.756 2.027 2.268v4.189h-1.084v-4.195c-.004-.457-.109-.795-.316-1.014-.203-.218-.522-.328-.955-.328-.352 0-.66.094-.926.281a1.906 1.906 0 00-.621.739v4.517h-1.084v-6.34h1.025z" fill="#171717"/><path d="M35.771 234h394M35.803 189h393.999M35.771 144h394M35.713 99h394m-394-45h394m-394-45h394" stroke="#FAFAFA"/><g filter="url(#filter0_d)"><path d="M112.025 166.199c0 3.053-2.496 5.529-5.574 5.529s-5.573-2.476-5.573-5.529c0-3.054 2.495-5.529 5.573-5.529 3.078 0 5.574 2.475 5.574 5.529z" fill="#171717"/></g><g opacity=".3" filter="url(#filter1_f)"><path fill-rule="evenodd" clip-rule="evenodd" d="M95.023 138.684h36.336a4 4 0 014 4v9.858a4 4 0 01-4 4h-14.177l-.649.524a.4.4 0 01-.502 0l-.648-.524h-20.36a4 4 0 01-4-4v-9.858a4 4 0 014-4z" fill="#171717"/></g><path fill-rule="evenodd" clip-rule="evenodd" d="M84.919 129.281h43a4 4 0 014 4v14a4 4 0 01-4 4h-15l-6.74 5.776a.398.398 0 01-.52 0l-6.74-5.776h-14a4 4 0 01-4-4v-14a4 4 0 014-4z" fill="#fff"/><path d="M97.464 144.281v-7.284h-.094l-2.15 1.559v-1.113l2.25-1.617h1.049v8.455h-1.055zm4.214 2.15h-.879l.562-3.334h1.184l-.867 3.334zm5.438-1.951c-.801 0-1.463-.225-1.986-.674-.524-.453-.809-1.045-.856-1.775h1.037c.047.457.237.826.569 1.107.336.277.752.416 1.248.416.566 0 1.021-.178 1.365-.533.348-.356.522-.822.522-1.401 0-.578-.174-1.046-.522-1.406-.344-.363-.793-.545-1.348-.545-.382 0-.726.084-1.031.252a1.79 1.79 0 00-.715.697h-.99l.463-4.792h4.717v.943h-3.891l-.24 2.713h.094c.41-.481 1.006-.721 1.787-.721.804 0 1.461.264 1.969.791.507.527.761 1.207.761 2.039 0 .86-.273 1.557-.82 2.092-.547.531-1.258.797-2.133.797zm4.905-.199v-8.825h1.008v3.504h.094c.16-.355.404-.629.732-.82.332-.191.737-.287 1.213-.287.672 0 1.203.207 1.594.621.39.41.586.982.586 1.717v4.09h-1.008v-3.844c0-1.117-.486-1.676-1.459-1.676-.555 0-.986.162-1.295.486-.305.321-.457.752-.457 1.295v3.739h-1.008z" fill="#171717"/><g filter="url(#filter2_d)"><path d="M179.937 122.752c0 3.053-2.496 5.529-5.574 5.529s-5.573-2.476-5.573-5.529c0-3.054 2.495-5.529 5.573-5.529 3.078 0 5.574 2.475 5.574 5.529z" fill="#171717"/></g><g opacity=".3" filter="url(#filter3_f)"><path fill-rule="evenodd" clip-rule="evenodd" d="M162.935 95.237h36.336a4 4 0 014 4v9.858a4 4 0 01-4 4h-14.177l-.649.524a.4.4 0 01-.502 0l-.648-.524h-20.36a4 4 0 01-4-4v-9.858a4 4 0 014-4z" fill="#171717"/></g><path fill-rule="evenodd" clip-rule="evenodd" d="M152.831 85.833h43a4 4 0 014 4v14a4 4 0 01-4 4h-15l-6.74 5.777a.4.4 0 01-.521 0l-6.739-5.777h-14a4 4 0 01-4-4v-14a4 4 0 014-4z" fill="#fff"/><path d="M162.417 94.757c0-.75.254-1.367.762-1.852.512-.484 1.16-.726 1.945-.726.758 0 1.393.228 1.904.686.516.453.774 1.015.774 1.687 0 .441-.125.875-.375 1.3-.25.427-.721 1.01-1.412 1.753l-2.033 2.185v.094h3.961v.949h-5.473v-.726l2.924-3.194c.543-.59.904-1.039 1.084-1.347a1.91 1.91 0 00.269-.973c0-.422-.16-.775-.48-1.06-.317-.29-.707-.434-1.172-.434-.496 0-.897.152-1.201.457-.305.305-.457.705-.457 1.201v.006h-1.02v-.006zm8.058 8.227h-.879l.562-3.334h1.184l-.867 3.334zm5.438-1.951c-.801 0-1.463-.225-1.987-.674-.523-.453-.808-1.045-.855-1.776h1.037c.047.457.236.826.568 1.108.336.277.752.416 1.249.416.566 0 1.021-.178 1.365-.534.347-.355.521-.822.521-1.4s-.174-1.047-.521-1.406c-.344-.363-.793-.545-1.348-.545a2.1 2.1 0 00-1.031.252 1.779 1.779 0 00-.715.697h-.99l.463-4.793h4.716v.944h-3.89l-.24 2.712h.093c.411-.48 1.006-.72 1.787-.72.805 0 1.461.263 1.969.79.508.528.762 1.208.762 2.04 0 .86-.273 1.556-.82 2.092-.547.531-1.258.797-2.133.797zm4.905-.2v-8.824h1.008v3.504h.093c.161-.356.405-.629.733-.82.332-.192.736-.287 1.213-.287.672 0 1.203.207 1.594.62.39.41.585.983.585 1.717v4.09h-1.007V96.99c0-1.118-.487-1.676-1.459-1.676-.555 0-.987.162-1.295.486-.305.32-.457.752-.457 1.295v3.738h-1.008z" fill="#171717"/><g filter="url(#filter4_d)"><path d="M308.736 53.044c0 3.053-2.495 5.529-5.573 5.529-3.079 0-5.574-2.476-5.574-5.53 0-3.053 2.495-5.528 5.574-5.528 3.078 0 5.573 2.475 5.573 5.529z" fill="#171717"/></g><g opacity=".3" filter="url(#filter5_f)"><path fill-rule="evenodd" clip-rule="evenodd" d="M291.734 25.53h36.336a4 4 0 014 4v9.857a4 4 0 01-4 4h-14.177l-.648.524a.4.4 0 01-.503 0l-.648-.524h-20.36a4 4 0 01-4-4V29.53a4 4 0 014-4z" fill="#171717"/></g><path fill-rule="evenodd" clip-rule="evenodd" d="M281.63 16.125h43a4 4 0 014 4v14a4 4 0 01-4 4h-15l-6.74 5.777a.4.4 0 01-.52 0l-6.74-5.777h-14a4 4 0 01-4-4v-14a4 4 0 014-4z" fill="#fff"/><path d="M300.311 31.125v-1.752h-4.119v-.96c.773-1.375 1.98-3.29 3.621-5.743h1.529v5.76h1.201v.943h-1.201v1.752h-1.031zm-3.041-2.76v.07h3.047V23.65h-.07c-.915 1.328-1.907 2.9-2.977 4.717zm7.167 2.76v-8.824h1.008v3.504h.093c.16-.355.405-.629.733-.82.332-.192.736-.287 1.213-.287.672 0 1.203.207 1.593.62.391.41.586.983.586 1.718v4.09h-1.007v-3.844c0-1.117-.487-1.676-1.459-1.676-.555 0-.987.162-1.295.486-.305.32-.457.752-.457 1.295v3.738h-1.008zM35.043 233.466a1 1 0 101.441 1.386l-1.441-1.386zm207.588-42.668c6.462 0 11.665-2.247 15.858-6.174 4.167-3.902 7.298-9.427 9.732-15.944 4.862-13.017 7.056-30.319 8.951-47.469 1.903-17.223 3.505-34.287 7.14-47.066 1.816-6.385 4.113-11.595 7.131-15.195 2.987-3.561 6.675-5.546 11.395-5.546v-2c-5.388 0-9.613 2.309-12.927 6.261-3.283 3.915-5.676 9.438-7.523 15.933-3.693 12.983-5.312 30.268-7.204 47.393-1.901 17.199-4.076 34.245-8.836 46.989-2.377 6.364-5.371 11.573-9.226 15.185-3.831 3.587-8.548 5.633-14.491 5.633v2zm60.207-137.394c9.406 0 15.242 2.78 19.392 6.865 4.209 4.142 6.761 9.684 9.46 15.446 2.668 5.696 5.478 11.598 10.231 16.041 4.803 4.49 11.503 7.422 21.807 7.422v-2c-9.878 0-16.064-2.79-20.442-6.883-4.427-4.139-7.093-9.68-9.785-15.428-2.661-5.681-5.355-11.582-9.868-16.024-4.572-4.498-10.934-7.439-20.795-7.439v2zm60.89 45.774c19.691 0 29.895 11.035 38.249 22.335 4.148 5.611 7.916 11.408 12.11 15.736 4.237 4.372 9.055 7.411 15.403 7.411v-2c-5.606 0-9.939-2.647-13.966-6.803-4.071-4.2-7.68-9.773-11.939-15.533-8.458-11.44-19.181-23.146-39.857-23.146v2zM174.621 123.09c7.665 0 13.73 4.002 19.056 10.229 5.345 6.249 9.836 14.608 14.365 23.096 4.501 8.435 9.043 17.002 14.454 23.447 5.428 6.463 11.851 10.936 20.135 10.936v-2c-7.456 0-13.37-3.991-18.603-10.222-5.249-6.251-9.69-14.611-14.222-23.103-4.503-8.439-9.095-17.007-14.609-23.454-5.532-6.467-12.102-10.929-20.576-10.929v2zM36.484 234.852c3.72-3.866 7.889-10.048 12.524-17.034 4.66-7.023 9.828-14.918 15.595-22.339 11.582-14.905 25.322-27.546 41.757-27.546v-2c-17.47 0-31.74 13.398-43.337 28.319-5.822 7.492-11.035 15.457-15.681 22.46-4.67 7.038-8.732 13.046-12.3 16.754l1.442 1.386zm69.876-66.919c11.238 0 19.266-2.855 25.46-7.187 6.169-4.316 10.451-10.052 14.262-15.673 3.845-5.673 7.166-11.144 11.487-15.252 4.258-4.047 9.46-6.731 17.052-6.731v-2c-8.162 0-13.844 2.922-18.43 7.282-4.524 4.3-8.01 10.04-11.765 15.578-3.789 5.589-7.901 11.064-13.752 15.157-5.827 4.075-13.446 6.826-24.314 6.826v2z" fill="#171717"/><g filter="url(#filter6_d)"><path d="M41.476 232.24c0 3.054-2.495 5.529-5.574 5.529-3.078 0-5.573-2.475-5.573-5.529 0-3.053 2.495-5.529 5.573-5.529 3.078 0 5.574 2.476 5.574 5.529z" fill="#171717"/></g><g opacity=".3" filter="url(#filter7_f)"><path fill-rule="evenodd" clip-rule="evenodd" d="M24.474 204.726H60.81a4 4 0 014 4v9.858a4 4 0 01-4 4H46.633l-.649.523a.399.399 0 01-.502 0l-.648-.523h-20.36a4 4 0 01-4-4v-9.858a4 4 0 014-4z" fill="#171717"/></g><path fill-rule="evenodd" clip-rule="evenodd" d="M14.37 195.322h43a4 4 0 014 4v14a4 4 0 01-4 4h-15l-6.74 5.777a.4.4 0 01-.52 0l-6.74-5.777h-14a4 4 0 01-4-4v-14a4 4 0 014-4z" fill="#fff"/><path d="M32.113 210.521c-.953 0-1.691-.387-2.215-1.16-.523-.773-.785-1.863-.785-3.27 0-1.394.264-2.48.791-3.257.528-.778 1.264-1.166 2.21-1.166.94 0 1.673.39 2.197 1.171.527.782.79 1.872.79 3.27 0 1.402-.261 2.488-.785 3.258-.52.769-1.254 1.154-2.203 1.154zm-1.441-1.828c.336.605.816.908 1.441.908.625 0 1.102-.301 1.43-.902.332-.606.498-1.475.498-2.608 0-1.121-.168-1.984-.504-2.589-.332-.606-.807-.909-1.424-.909-.617 0-1.096.305-1.435.914-.336.606-.504 1.467-.504 2.584 0 1.129.166 1.997.498 2.602zm6.422 1.629v-8.824h1.008v3.504h.094a1.76 1.76 0 01.733-.821c.331-.191.736-.287 1.212-.287.672 0 1.203.207 1.594.621.39.41.586.983.586 1.717v4.09h-1.008v-3.844c0-1.117-.486-1.676-1.459-1.676-.554 0-.986.162-1.295.487-.304.32-.457.752-.457 1.295v3.738h-1.008z" fill="#171717"/><g filter="url(#filter8_d)"><path d="M247.849 189.478c0 3.053-2.495 5.528-5.573 5.528-3.078 0-5.574-2.475-5.574-5.528 0-3.054 2.496-5.529 5.574-5.529s5.573 2.475 5.573 5.529z" fill="#171717"/></g><g opacity=".3" filter="url(#filter9_f)"><path fill-rule="evenodd" clip-rule="evenodd" d="M230.848 161.963h36.336a4 4 0 014 4v9.858a4 4 0 01-4 4h-14.178l-.648.524a.402.402 0 01-.503 0l-.648-.524h-20.359a4 4 0 01-4-4v-9.858a4 4 0 014-4z" fill="#171717"/></g><path fill-rule="evenodd" clip-rule="evenodd" d="M220.743 152.559h43a4 4 0 014 4v14a4 4 0 01-4 4h-15l-6.739 5.777a.401.401 0 01-.521 0l-6.74-5.777h-14a4 4 0 01-4-4v-14a4 4 0 014-4z" fill="#fff"/><path d="M238.645 167.559v-7.283h-.094l-2.15 1.559v-1.114l2.25-1.617h1.049v8.455h-1.055zm3.845 0v-8.824h1.007v3.504h.094c.16-.356.404-.629.733-.82.332-.192.736-.288 1.212-.288.672 0 1.204.207 1.594.622.391.41.586.982.586 1.716v4.09h-1.008v-3.844c0-1.117-.486-1.675-1.459-1.675-.554 0-.986.162-1.295.486-.304.32-.457.752-.457 1.295v3.738h-1.007z" fill="#171717"/><g filter="url(#filter10_d)"><path d="M369.623 98.06c0 3.053-2.495 5.528-5.573 5.528-3.079 0-5.574-2.475-5.574-5.529 0-3.053 2.495-5.529 5.574-5.529 3.078 0 5.573 2.476 5.573 5.53z" fill="#171717"/></g><g opacity=".3" filter="url(#filter11_f)"><path fill-rule="evenodd" clip-rule="evenodd" d="M352.621 70.544h36.336a4 4 0 014 4v9.859a4 4 0 01-4 4H374.78l-.648.523a.4.4 0 01-.503 0l-.648-.523h-20.36a4 4 0 01-4-4v-9.859a4 4 0 014-4z" fill="#171717"/></g><path fill-rule="evenodd" clip-rule="evenodd" d="M342.517 61.14h43a4 4 0 014 4v14a4 4 0 01-4 4h-15l-6.74 5.778a.4.4 0 01-.52 0l-6.74-5.777h-14a4 4 0 01-4-4v-14a4 4 0 014-4z" fill="#fff"/><path d="M359.165 72.244v-.902h1.025c.481 0 .873-.14 1.178-.422.308-.281.463-.64.463-1.078 0-.43-.149-.775-.446-1.037-.296-.266-.689-.399-1.177-.399-.489 0-.883.13-1.184.387-.301.254-.473.607-.516 1.06h-1.025c.055-.734.328-1.312.82-1.734.493-.422 1.141-.632 1.946-.632.484 0 .929.1 1.336.298.41.196.732.463.966.803.235.34.352.711.352 1.113 0 .504-.131.93-.393 1.278-.261.347-.625.578-1.089.691v.094c.574.074 1.025.299 1.353.674.328.37.492.845.492 1.424 0 .695-.287 1.283-.861 1.763-.574.477-1.279.715-2.115.715-.86 0-1.561-.219-2.104-.656-.543-.442-.834-1.024-.873-1.746h1.02a1.5 1.5 0 00.597 1.078c.352.27.801.404 1.348.404.555 0 1.01-.148 1.365-.445.36-.297.539-.678.539-1.143 0-.488-.174-.875-.521-1.16-.348-.285-.822-.428-1.424-.428h-1.072zm6.059 3.897v-8.824h1.008v3.504h.094c.16-.356.404-.63.732-.82.332-.192.736-.288 1.213-.288.672 0 1.203.207 1.594.621.39.41.586.983.586 1.717v4.09h-1.008v-3.844c0-1.117-.486-1.676-1.459-1.676-.555 0-.986.162-1.295.487-.305.32-.457.751-.457 1.294v3.739h-1.008z" fill="#171717"/><g filter="url(#filter12_d)"><path d="M435.779 144.277c0 3.053-2.496 5.529-5.574 5.529s-5.573-2.476-5.573-5.529c0-3.054 2.495-5.529 5.573-5.529 3.078 0 5.574 2.475 5.574 5.529z" fill="#171717"/></g><g opacity=".3" filter="url(#filter13_f)"><path fill-rule="evenodd" clip-rule="evenodd" d="M418.777 116.762h36.336a4 4 0 014 4v9.858a4 4 0 01-4 4h-14.178l-.648.524a.4.4 0 01-.502 0l-.648-.524h-20.36a4 4 0 01-4-4v-9.858a4 4 0 014-4z" fill="#171717"/></g><path fill-rule="evenodd" clip-rule="evenodd" d="M408.673 107.358h43a4 4 0 014 4v14a4 4 0 01-4 4h-15l-6.74 5.777a.4.4 0 01-.521 0l-6.739-5.777h-14a4 4 0 01-4-4v-14a4 4 0 014-4z" fill="#fff"/><path d="M423.674 116.282c0-.75.254-1.367.762-1.851.511-.485 1.16-.727 1.945-.727.758 0 1.393.229 1.904.686.516.453.774 1.015.774 1.687 0 .441-.125.875-.375 1.301-.25.426-.721 1.01-1.412 1.752l-2.034 2.185v.094h3.961v.949h-5.472v-.726l2.923-3.194c.543-.589.905-1.039 1.084-1.347.18-.309.27-.633.27-.973 0-.422-.16-.775-.48-1.06-.317-.29-.708-.434-1.172-.434-.496 0-.897.152-1.202.457-.304.305-.457.705-.457 1.201v.006h-1.019v-.006zm7.571 6.076v-8.824h1.008v3.504h.094c.16-.355.404-.629.732-.82.332-.192.736-.287 1.213-.287.672 0 1.203.207 1.594.621.39.41.586.982.586 1.716v4.09h-1.008v-3.843c0-1.118-.487-1.676-1.459-1.676-.555 0-.987.162-1.295.486-.305.32-.457.752-.457 1.295v3.738h-1.008z" fill="#171717"/><defs><filter id="filter0_d" x="98.878" y="159.67" width="15.147" height="15.058" filterUnits="userSpaceOnUse" color-interpolation-filters="sRGB"><feFlood flood-opacity="0" result="BackgroundImageFix"/><feColorMatrix in="SourceAlpha" values="0 0 0 0 0 0 0 0 0 0 0 0 0 0 0 0 0 0 127 0"/><feOffset dy="1"/><feGaussianBlur stdDeviation="1"/><feColorMatrix values="0 0 0 0 0.215686 0 0 0 0 0.317647 0 0 0 0 1 0 0 0 0.2 0"/><feBlend in2="BackgroundImageFix" result="effect1_dropShadow"/><feBlend in="SourceGraphic" in2="effect1_dropShadow" result="shape"/></filter><filter id="filter1_f" x="71.023" y="118.684" width="84.336" height="58.471" filterUnits="userSpaceOnUse" color-interpolation-filters="sRGB"><feFlood flood-opacity="0" result="BackgroundImageFix"/><feBlend in="SourceGraphic" in2="BackgroundImageFix" result="shape"/><feGaussianBlur stdDeviation="10" result="effect1_foregroundBlur"/></filter><filter id="filter2_d" x="166.79" y="116.223" width="15.147" height="15.058" filterUnits="userSpaceOnUse" color-interpolation-filters="sRGB"><feFlood flood-opacity="0" result="BackgroundImageFix"/><feColorMatrix in="SourceAlpha" values="0 0 0 0 0 0 0 0 0 0 0 0 0 0 0 0 0 0 127 0"/><feOffset dy="1"/><feGaussianBlur stdDeviation="1"/><feColorMatrix values="0 0 0 0 0.215686 0 0 0 0 0.317647 0 0 0 0 1 0 0 0 0.2 0"/><feBlend in2="BackgroundImageFix" result="effect1_dropShadow"/><feBlend in="SourceGraphic" in2="effect1_dropShadow" result="shape"/></filter><filter id="filter3_f" x="138.935" y="75.237" width="84.336" height="58.471" filterUnits="userSpaceOnUse" color-interpolation-filters="sRGB"><feFlood flood-opacity="0" result="BackgroundImageFix"/><feBlend in="SourceGraphic" in2="BackgroundImageFix" result="shape"/><feGaussianBlur stdDeviation="10" result="effect1_foregroundBlur"/></filter><filter id="filter4_d" x="295.589" y="46.515" width="15.147" height="15.058" filterUnits="userSpaceOnUse" color-interpolation-filters="sRGB"><feFlood flood-opacity="0" result="BackgroundImageFix"/><feColorMatrix in="SourceAlpha" values="0 0 0 0 0 0 0 0 0 0 0 0 0 0 0 0 0 0 127 0"/><feOffset dy="1"/><feGaussianBlur stdDeviation="1"/><feColorMatrix values="0 0 0 0 0.215686 0 0 0 0 0.317647 0 0 0 0 1 0 0 0 0.2 0"/><feBlend in2="BackgroundImageFix" result="effect1_dropShadow"/><feBlend in="SourceGraphic" in2="effect1_dropShadow" result="shape"/></filter><filter id="filter5_f" x="267.734" y="5.529" width="84.336" height="58.471" filterUnits="userSpaceOnUse" color-interpolation-filters="sRGB"><feFlood flood-opacity="0" result="BackgroundImageFix"/><feBlend in="SourceGraphic" in2="BackgroundImageFix" result="shape"/><feGaussianBlur stdDeviation="10" result="effect1_foregroundBlur"/></filter><filter id="filter6_d" x="28.329" y="225.711" width="15.147" height="15.058" filterUnits="userSpaceOnUse" color-interpolation-filters="sRGB"><feFlood flood-opacity="0" result="BackgroundImageFix"/><feColorMatrix in="SourceAlpha" values="0 0 0 0 0 0 0 0 0 0 0 0 0 0 0 0 0 0 127 0"/><feOffset dy="1"/><feGaussianBlur stdDeviation="1"/><feColorMatrix values="0 0 0 0 0.215686 0 0 0 0 0.317647 0 0 0 0 1 0 0 0 0.2 0"/><feBlend in2="BackgroundImageFix" result="effect1_dropShadow"/><feBlend in="SourceGraphic" in2="effect1_dropShadow" result="shape"/></filter><filter id="filter7_f" x=".474" y="184.726" width="84.336" height="58.471" filterUnits="userSpaceOnUse" color-interpolation-filters="sRGB"><feFlood flood-opacity="0" result="BackgroundImageFix"/><feBlend in="SourceGraphic" in2="BackgroundImageFix" result="shape"/><feGaussianBlur stdDeviation="10" result="effect1_foregroundBlur"/></filter><filter id="filter8_d" x="234.702" y="182.949" width="15.147" height="15.058" filterUnits="userSpaceOnUse" color-interpolation-filters="sRGB"><feFlood flood-opacity="0" result="BackgroundImageFix"/><feColorMatrix in="SourceAlpha" values="0 0 0 0 0 0 0 0 0 0 0 0 0 0 0 0 0 0 127 0"/><feOffset dy="1"/><feGaussianBlur stdDeviation="1"/><feColorMatrix values="0 0 0 0 0.215686 0 0 0 0 0.317647 0 0 0 0 1 0 0 0 0.2 0"/><feBlend in2="BackgroundImageFix" result="effect1_dropShadow"/><feBlend in="SourceGraphic" in2="effect1_dropShadow" result="shape"/></filter><filter id="filter9_f" x="206.848" y="141.963" width="84.336" height="58.471" filterUnits="userSpaceOnUse" color-interpolation-filters="sRGB"><feFlood flood-opacity="0" result="BackgroundImageFix"/><feBlend in="SourceGraphic" in2="BackgroundImageFix" result="shape"/><feGaussianBlur stdDeviation="10" result="effect1_foregroundBlur"/></filter><filter id="filter10_d" x="356.476" y="91.53" width="15.147" height="15.058" filterUnits="userSpaceOnUse" color-interpolation-filters="sRGB"><feFlood flood-opacity="0" result="BackgroundImageFix"/><feColorMatrix in="SourceAlpha" values="0 0 0 0 0 0 0 0 0 0 0 0 0 0 0 0 0 0 127 0"/><feOffset dy="1"/><feGaussianBlur stdDeviation="1"/><feColorMatrix values="0 0 0 0 0.215686 0 0 0 0 0.317647 0 0 0 0 1 0 0 0 0.2 0"/><feBlend in2="BackgroundImageFix" result="effect1_dropShadow"/><feBlend in="SourceGraphic" in2="effect1_dropShadow" result="shape"/></filter><filter id="filter11_f" x="328.621" y="50.544" width="84.336" height="58.471" filterUnits="userSpaceOnUse" color-interpolation-filters="sRGB"><feFlood flood-opacity="0" result="BackgroundImageFix"/><feBlend in="SourceGraphic" in2="BackgroundImageFix" result="shape"/><feGaussianBlur stdDeviation="10" result="effect1_foregroundBlur"/></filter><filter id="filter12_d" x="422.632" y="137.748" width="15.147" height="15.058" filterUnits="userSpaceOnUse" color-interpolation-filters="sRGB"><feFlood flood-opacity="0" result="BackgroundImageFix"/><feColorMatrix in="SourceAlpha" values="0 0 0 0 0 0 0 0 0 0 0 0 0 0 0 0 0 0 127 0"/><feOffset dy="1"/><feGaussianBlur stdDeviation="1"/><feColorMatrix values="0 0 0 0 0.215686 0 0 0 0 0.317647 0 0 0 0 1 0 0 0 0.2 0"/><feBlend in2="BackgroundImageFix" result="effect1_dropShadow"/><feBlend in="SourceGraphic" in2="effect1_dropShadow" result="shape"/></filter><filter id="filter13_f" x="394.777" y="96.762" width="84.336" height="58.471" filterUnits="userSpaceOnUse" color-interpolation-filters="sRGB"><feFlood flood-opacity="0" result="BackgroundImageFix"/><feBlend in="SourceGraphic" in2="BackgroundImageFix" result="shape"/><feGaussianBlur stdDeviation="10" result="effect1_foregroundBlur"/></filter></defs></svg>