<svg width="42" height="41" fill="none" xmlns="http://www.w3.org/2000/svg"><path d="M27.884.615c.299.47.555 1.11.768 1.92a7.64 7.64 0 01.384 2.432c0 1.664-.362 2.859-1.088 3.584-.682.683-1.621 1.024-2.816 1.024h-13.44v7.232h14.016c.342.47.619 1.088.832 1.856a7.64 7.64 0 01.384 2.432c0 1.621-.362 2.795-1.088 3.52-.682.683-1.621 1.024-2.816 1.024h-11.2v13.504c-.469.128-1.216.256-2.24.384-.981.128-1.962.192-2.944.192-.981 0-1.856-.085-2.624-.256-.725-.128-1.344-.384-1.856-.768s-.896-.917-1.152-1.6C.748 36.412.62 35.516.62 34.407V6.567c0-1.835.534-3.285 1.6-4.352 1.067-1.067 2.518-1.6 4.352-1.6h21.312zm1.422 33.6c0-1.792.554-3.285 1.664-4.48 1.11-1.195 2.624-1.792 4.544-1.792 1.92 0 3.434.597 4.544 1.792 1.11 1.195 1.664 2.688 1.664 4.48 0 1.792-.555 3.285-1.664 4.48-1.11 1.195-2.624 1.792-4.544 1.792-1.92 0-3.435-.597-4.544-1.792-1.11-1.195-1.664-2.688-1.664-4.48z" fill="#FEFEFE"/></svg>