<svg width="126" height="126" fill="none" xmlns="http://www.w3.org/2000/svg"><g clip-path="url(#clip0)" fill="#171717"><path d="M124.907 114.563l-9.429-48.483a3.162 3.162 0 00-3.101-2.578h-5.118l-.454-2.78a3.16 3.16 0 00-2.647-2.63 7.277 7.277 0 00-.731-.1 3.078 3.078 0 00-.479-.051l-1.21-.177.252-1.189a11.965 11.965 0 00-1.488-8.796l-.302-.48.201-.531a7.727 7.727 0 00-.403-6.421 7.718 7.718 0 00-5.143-3.867l-.731-.152-.126-.759c-1.513-8.089-8.572-14.004-16.766-14.054-.076 0-.177 0-.252.025-.101 0-.202.025-.303.025l-.655.026-.353-.556a7.718 7.718 0 00-5.496-3.489 7.615 7.615 0 00-6.177 2.023l-.656.606-.756-.48a13.599 13.599 0 00-7.413-2.2 13.735 13.735 0 00-10.84 5.36l-.48.606-.73-.227c-2.825-.81-5.8-.329-8.195 1.365a9.59 9.59 0 00-4.059 7.28l-.05.708-.656.278c-2.874 1.213-4.714 4.019-4.74 7.128 0 .531.076 1.062.177 1.593l.1.48-.276.404a16.251 16.251 0 00-1.942 13.903l.404 1.29-1.337.176c-.227.026-.479.051-.706.102-.327.05-.68.1-1.008.126a3.188 3.188 0 00-2.672 2.629l-.454 2.78h-5.068a3.163 3.163 0 00-3.1 2.579l-9.43 48.508a5.384 5.384 0 001.11 4.424 5.294 5.294 0 004.109 1.946h45.507l.328.557c1.361 2.249 5.925 3.766 11.32 3.766 5.37 0 9.883-1.517 11.27-3.766l.327-.531h45.558c1.588 0 3.076-.708 4.11-1.947a5.316 5.316 0 001.159-4.449zM25.951 45.858l.655-1.568 1.185 1.214c.404.43.883.783 1.387 1.112.48.278 1.084.126 1.387-.354.277-.455.151-1.011-.252-1.34l-.076-.05c-2.168-1.315-3.227-3.944-2.546-6.395.68-2.452 2.924-4.171 5.445-4.171h.026c1.764 0 3.454.859 4.513 2.3.201.278.58.43.932.404.353-.05.681-.278.807-.606a.985.985 0 00-.126-1.012 7.648 7.648 0 00-5.294-3.008l-1.261-.126.252-1.239c.757-3.513 3.908-6.092 7.488-6.092h.05c.303.026.605.051.908.102l1.387.227-.505 1.314a11.38 11.38 0 00-.403 1.214c-.126.53.202 1.062.731 1.213a1.033 1.033 0 001.236-.708c.277-1.036.68-2.022 1.235-2.982a11.809 11.809 0 0110.034-5.764c2.27 0 4.438.683 6.328 1.921l.757.48-.303.835a7.38 7.38 0 00-.428 2.452c0 .556.453 1.01 1.008 1.01.555 0 1.009-.454 1.009-1.01 0-3.135 2.546-5.688 5.647-5.688 3.126 0 5.673 2.553 5.673 5.688 0 .556.453 1.01 1.008 1.01.555 0 1.009-.454 1.009-1.01 0-.026 0-.076-.026-.101-.025-.101-.025-.203-.025-.329l-.075-1.264 1.26.076c6.606.404 12.278 5.207 13.766 11.678l.252 1.062-1.034.303a7.272 7.272 0 00-2.42 1.214c-.278.227-.454.581-.404.935.05.354.278.683.606.809a.972.972 0 001.008-.126c2.143-1.593 5.143-1.466 7.135.303 1.992 1.77 2.496 4.727 1.185 7.053a5.606 5.606 0 01-2.546 2.35c-.404.203-.63.683-.53 1.138.1.455.504.783.983.809a.957.957 0 00.429-.101 6.803 6.803 0 001.387-.885l1.235-.986.53 1.492a10.322 10.322 0 01-2.043 10.338l-.075.076c-3.101 3.387-8.169 4.297-12.304 2.25l-.025-.026c-.403-.227-.807-.455-1.185-.733l-.907-.657.655-.91c1.336-1.896 1.538-4.348.479-6.42-.151-.329-.479-.531-.857-.556a1.018 1.018 0 00-.908.454c-.202.304-.227.708-.05 1.012.958 1.92.353 4.297-1.412 5.51a4.375 4.375 0 01-3.53.607 4.347 4.347 0 01-2.798-2.225 1.033 1.033 0 00-.857-.581 1.018 1.018 0 00-.908.455.972.972 0 00-.05 1.011c1.084 2.174 3.252 3.54 5.672 3.54h.025a5.88 5.88 0 002.27-.456l.655-.253.53.455a11.884 11.884 0 002.294 1.568c2.823 1.466 6.05 1.769 9.076.834l3.252-.986-2.017 2.755a14.804 14.804 0 01-9.58 5.89c-.504.076-.883.556-.857 1.087.05.53.479.935 1.008.935h.176a16.31 16.31 0 003.555-1.036l.933-.405.504.885a19.974 19.974 0 011.69 3.918c.1.329.15.683.176 1.037 0 1.39-.832 2.654-2.092 3.185l-.026.025c-.428.152-.857.253-1.285.253-1.06 0-2.068-.48-2.774-1.315a12.613 12.613 0 00-5.773-3.842c-4.513-1.517-6.858-3.033-7.866-5.056l-.731-1.44 1.588-.203a19.103 19.103 0 003.126-.657 1 1 0 00.68-.733 1.02 1.02 0 00-1.286-1.213c-1.285.404-2.62.632-3.982.733a17.034 17.034 0 01-7.614-1.163 1.01 1.01 0 00-1.135.278c-3.555 4.095-9.505 4.778-13.892 1.593a10.346 10.346 0 01-2.798-13.727c.202-.303.202-.707.025-1.036a.989.989 0 00-.882-.53.995.995 0 00-.883.505 14.294 14.294 0 00-1.134 2.528l-.252.834-.883-.05c-2.269-.127-4.084-1.998-4.134-4.298v-.076a.959.959 0 00-.303-.708 1.034 1.034 0 00-1.74.759A6.349 6.349 0 0041.784 61l1.008.1v1.011c0 .658.076 1.315.177 1.972l.176 1.062-1.058.227c-5.245 1.138-10.615-.733-14.043-4.878-3.404-4.045-4.21-9.707-2.093-14.636zM50.81 118.86H5.328a3.25 3.25 0 01-2.547-1.214 3.188 3.188 0 01-.68-2.704l9.605-49.419h5.698l-6.958 42.012a3.186 3.186 0 001.059 2.907 3.136 3.136 0 003.025.632c11.598-3.766 24.077-4.55 36.078-2.3l1.009.202-.807 9.884zm21.253 1.567c-.857 1.34-4.664 2.755-9.555 2.755s-8.698-1.39-9.555-2.755l-.202-.329.883-10.667 1.285.329c2.42.606 4.79 1.415 7.085 2.376l.05.025c.126.076.303.101.454.101a.825.825 0 00.429-.101l.05-.025a47.743 47.743 0 017.085-2.402l1.285-.328.883 10.692-.177.329zm-7.059-11.299l-1.487.505V81.121c0-.531-.379-1.012-.908-1.062-.605-.05-1.135.404-1.135 1.011v28.589l-1.487-.505c-14.85-4.98-31.212-4.98-46.062-.025-.126.05-.252.05-.353.05a1.12 1.12 0 01-1.11-1.314l7.892-47.675.807-.126c.807-.127 1.664-.228 2.47-.329l1.311-.177.379.632a16.21 16.21 0 0017.623 7.18l.857-.203.403.784a12.506 12.506 0 008.85 6.446c3.756.631 7.69-.531 10.488-3.16l.479-.455.63.177a20.16 20.16 0 004.236.758l.806.05.202.784c.933 3.514 3.605 5.663 9.606 7.685 1.89.581 3.58 1.719 4.866 3.235 1.084 1.29 2.672 2.048 4.336 2.048.731 0 1.437-.152 2.093-.43a5.497 5.497 0 003.328-5.055c0-.582-.101-1.138-.278-1.694-.454-1.466-1.084-2.856-1.815-4.196l-.504-.885.832-.607a17.028 17.028 0 006.706-10.263l.05-.278.177-.227c.429-.506.807-1.037 1.135-1.593l.378-.631 1.21.151c.555.076 1.16.152 1.74.253l.806.126 7.892 47.649c.126.835-.681 1.542-1.488 1.264a72.933 72.933 0 00-23.018-3.741c-7.715.051-15.505 1.289-22.943 3.767zm57.206 8.544a3.331 3.331 0 01-2.547 1.213H74.206l-.806-9.909 1.008-.202a72.903 72.903 0 0136.103 2.325c1.034.329 2.169.076 3.026-.657a3.187 3.187 0 001.059-2.907l-6.959-41.987h5.723l9.606 49.419c.126.96-.126 1.946-.756 2.705z"/><path d="M72.265 120.099l-.202.329c-.857 1.34-4.664 2.755-9.555 2.755s-8.698-1.39-9.555-2.755l-.202-.329.883-10.667 1.285.329c2.42.606 4.79 1.415 7.085 2.376l.05.025c.126.076.303.101.454.101a.825.825 0 00.429-.101l.05-.025a47.743 47.743 0 017.085-2.402l1.285-.328.908 10.692zM76.4 44.594c-.933 4.853-4.84 8.645-9.682 9.454l-.655.1-.227.607a9.552 9.552 0 01-8.925 6.194h-.025a1.013 1.013 0 01-1.009-1.011c0-.557.454-1.012 1.009-1.012a7.535 7.535 0 006.151-3.185l1.009-1.415-1.69-.354a11.767 11.767 0 01-6.302-3.64.998.998 0 01-.252-.683c0-.278.126-.556.328-.758.428-.38 1.058-.354 1.436.076 3.354 3.59 8.724 4.196 12.808 1.466a9.682 9.682 0 004.034-6.218.99.99 0 01.656-.784.985.985 0 011.008.202c.302.202.429.581.328.96zm-19.766-8.822c0 .556-.454 1.01-1.009 1.01-1.79 0-3.479.709-4.765 1.973-1.285 1.263-1.966 2.982-1.966 4.777 0 .556-.454 1.011-1.009 1.011a.914.914 0 01-.706-.303 1 1 0 01-.302-.708c0-4.853 3.933-8.771 8.773-8.797.53 0 .984.455.984 1.037zm6.883-34.53V3.39c0 .557-.454 1.012-1.009 1.012A1.013 1.013 0 0161.5 3.39V1.242c0-.556.453-1.011 1.008-1.011.555 0 1.009.455 1.009 1.01zm36.531 15.571l-2.168 2.174c-.252.253-.63.38-.983.278a1.068 1.068 0 01-.731-.733c-.101-.354 0-.733.277-1.011l2.143-2.149h.025a1.01 1.01 0 01.731-.303.87.87 0 01.253.025c.353.101.63.38.731.733.101.329 0 .708-.278.986zm-71.273 1.82c-.152.38-.53.632-.933.632a.914.914 0 01-.706-.303l-2.168-2.174a.967.967 0 01-.278-.986c.101-.354.378-.632.732-.733.075-.025.176-.025.252-.025.277 0 .529.1.756.328l2.143 2.149c.277.303.353.733.202 1.112zm16.564-9.075a1 1 0 01-.555.556 1.033 1.033 0 01-.403.076c-.404 0-.782-.253-.933-.632l-2.47-6.016a1.03 1.03 0 01.125-1.036c.202-.253.504-.405.807-.405h.151c.353.05.68.304.807.657l2.47 5.991a1.11 1.11 0 010 .81zm38.7-5.965l-2.47 5.99a.847.847 0 01-.379.456 1.033 1.033 0 01-.555.177.918.918 0 01-.378-.076 1 1 0 01-.555-.556c-.1-.253-.1-.531 0-.784l2.471-5.966c.151-.404.555-.632.933-.632.126 0 .252.026.378.076a1 1 0 01.555.556c.1.228.1.506 0 .759zm29.17 28.917c-.05.355-.277.683-.63.81l-5.976 2.477a1.02 1.02 0 01-.378.076c-.479 0-.907-.354-1.008-.81a.994.994 0 01.605-1.137l5.975-2.477a1.02 1.02 0 01.378-.076c.227 0 .429.076.631.203a.996.996 0 01.403.935zm-93.485 2.73c-.202.532-.807.76-1.337.557l-5.975-2.477a1 1 0 01-.555-.556c-.1-.253-.1-.531 0-.784a1 1 0 01.555-.556c.126-.05.252-.076.378-.076s.278.025.378.076l5.976 2.477a1 1 0 01.554.556.95.95 0 01.026.784z"/></g><defs><clipPath id="clip0"><path fill="#fff" transform="translate(.008 .23)" d="M0 0h125v125H0z"/></clipPath></defs></svg>