<svg width="40" height="41" fill="none" xmlns="http://www.w3.org/2000/svg"><path d="M13.873 17.84c0 .46-.123.871-.368 1.231a2.46 2.46 0 01-.984.844c.482.207.863.51 1.143.908.283.398.425.848.425 1.352 0 .8-.271 1.437-.813 1.91-.537.475-1.246.712-2.126.712-.889 0-1.602-.237-2.14-.711-.532-.479-.8-1.115-.8-1.911 0-.5.136-.95.407-1.352a2.569 2.569 0 011.136-.914 2.422 2.422 0 01-.97-.844 2.177 2.177 0 01-.356-1.226c0-.778.25-1.396.749-1.853.5-.457 1.157-.686 1.974-.686.812 0 1.468.229 1.968.686.503.457.755 1.075.755 1.854zm-.958 4.31c0-.517-.165-.938-.496-1.264-.325-.325-.753-.488-1.282-.488s-.954.16-1.276.482c-.317.322-.476.745-.476 1.27 0 .524.155.937.464 1.237.313.3.746.451 1.3.451.551 0 .983-.15 1.296-.45.313-.305.47-.718.47-1.238zm-1.765-5.885c-.461 0-.836.144-1.124.432-.283.284-.425.67-.425 1.162 0 .47.14.85.419 1.142.284.288.66.432 1.13.432.47 0 .844-.144 1.123-.432.284-.292.426-.673.426-1.142 0-.47-.146-.853-.438-1.15-.292-.296-.662-.444-1.111-.444zm6.125 3.212h.883c.554-.008.99-.154 1.307-.438.318-.283.476-.666.476-1.149 0-1.083-.54-1.625-1.618-1.625-.508 0-.914.146-1.219.438-.3.288-.45.671-.45 1.15h-1.175c0-.733.267-1.34.8-1.823.537-.486 1.219-.73 2.044-.73.872 0 1.555.231 2.05.692.495.462.743 1.103.743 1.924 0 .402-.131.791-.394 1.168a2.337 2.337 0 01-1.06.844c.508.16.9.427 1.174.8.28.372.42.827.42 1.364 0 .83-.271 1.488-.813 1.975-.542.486-1.246.73-2.114.73-.867 0-1.574-.235-2.12-.705-.542-.47-.813-1.09-.813-1.86h1.181c0 .487.159.876.476 1.168.318.292.743.438 1.276.438.567 0 1-.148 1.301-.444.3-.296.451-.722.451-1.276 0-.538-.165-.95-.495-1.238-.33-.288-.806-.436-1.428-.444h-.883v-.959zm5.491-2.272c0-.555.176-1.012.527-1.371.355-.36.81-.54 1.365-.54.563 0 1.017.182 1.364.546.352.36.527.827.527 1.403v.45c0 .56-.177 1.016-.533 1.372-.351.35-.8.526-1.346.526-.55 0-1.005-.175-1.364-.526-.36-.356-.54-.828-.54-1.416v-.444zm.876.489c0 .33.093.603.28.818.186.212.435.318.748.318.3 0 .542-.104.724-.311.186-.208.28-.491.28-.85v-.464c0-.33-.092-.603-.274-.82-.182-.215-.43-.323-.742-.323-.313 0-.561.108-.743.324-.182.216-.273.497-.273.844v.463zm3.625 4.71c0-.555.175-1.01.527-1.365.355-.36.81-.54 1.364-.54.555 0 1.01.178 1.365.533.355.356.533.828.533 1.416v.45c0 .555-.178 1.012-.533 1.372-.351.355-.802.533-1.352.533s-1.005-.176-1.365-.527c-.36-.355-.54-.827-.54-1.416v-.456zm.876.495c0 .334.093.609.279.825.186.211.436.317.749.317.305 0 .548-.104.73-.31.182-.213.273-.498.273-.858v-.47c0-.334-.093-.607-.28-.818-.181-.212-.427-.318-.736-.318-.3 0-.546.106-.736.318-.186.207-.28.488-.28.844v.47zm-3.206 1.072l-.667-.419 4.514-7.223.666.419-4.513 7.223z" fill="#171717"/><mask id="a" fill="#fff"><path d="M38.636 20.17c.753 0 1.369.611 1.317 1.363A20 20 0 1124.656.719c.733.176 1.133.946.908 1.665-.225.719-.99 1.114-1.724.946a17.272 17.272 0 1013.378 18.202c.06-.75.664-1.362 1.418-1.362z"/></mask><path d="M38.636 20.17c.753 0 1.369.611 1.317 1.363A20 20 0 1124.656.719c.733.176 1.133.946.908 1.665-.225.719-.99 1.114-1.724.946a17.272 17.272 0 1013.378 18.202c.06-.75.664-1.362 1.418-1.362z" stroke="#171717" stroke-width="4" mask="url(#a)"/></svg>