<svg width="33" height="33" fill="none" xmlns="http://www.w3.org/2000/svg"><path d="M16.5 32.338c5.12 0 9.673-2.406 12.602-6.147h-8.427c-1.088 3.626-1.695 6.147-4.175 6.147zm-.949-.028h-.009.009zm5.124-25.825h8.427C26.173 2.745 21.619.338 16.5.338c2.48 0 3.087 2.52 4.175 6.147zM15.542.367h.009-.009z" fill="#C42126"/><path d="M29.102 6.485h-8.427c1.7 5.669 1.7 14.038 0 19.706H29.1a15.924 15.924 0 003.399-9.853c0-3.718-1.271-7.136-3.398-9.853z" fill="#FFC40C"/><path d="M16.5 32.338zM15.551.366z" fill="#C42126"/><path d="M21.852 26.19H3.899a15.968 15.968 0 0011.643 6.12h.009c.314.019.63.028.949.028 2.48 0 4.264-2.52 5.352-6.147zM3.899 6.485h17.953C20.764 2.859 18.98.338 16.5.338c-.318 0-.635.01-.949.028h-.009A15.97 15.97 0 003.9 6.485z" fill="#D32030"/><path d="M.5 16.338c0 3.718 1.271 7.136 3.399 9.853h17.953c1.7-5.668 1.7-14.038 0-19.706H3.899A15.926 15.926 0 00.5 16.338z" fill="#FFD034"/></svg>