<svg width="9" height="5" viewBox="0 0 9 5" fill="none" xmlns="http://www.w3.org/2000/svg">
<path d="M4.84107 4.06846L7.86177 1.09141C8.04608 0.909775 8.04608 0.615195 7.86177 0.433558C7.67744 0.251884 7.37861 0.251884 7.19427 0.433558L4.97931 2.61652C4.97931 2.61652 4.75642 2.86252 4.50912 2.85736C4.26776 2.85232 4.03534 2.61652 4.03534 2.61652L1.82037 0.433632C1.63603 0.251958 1.3372 0.251958 1.15287 0.433632C1.06077 0.524432 1.01463 0.643514 1.01463 0.762559C1.01463 0.881603 1.06077 1.00065 1.15287 1.09149L4.17357 4.06846C4.35791 4.25013 4.65673 4.25013 4.84107 4.06846Z" fill="#171717" stroke="#171717" stroke-width="0.5"/>
</svg>
