<svg width="480" height="267" viewBox="0 0 480 267" fill="none" xmlns="http://www.w3.org/2000/svg">
<path d="M24.3146 259.609L24.3439 260.313C24.8088 259.766 25.4357 259.492 26.2248 259.492C27.1115 259.492 27.715 259.832 28.0353 260.512C28.2463 260.207 28.5197 259.961 28.8557 259.774C29.1955 259.586 29.5959 259.492 30.0568 259.492C31.4474 259.492 32.1545 260.229 32.1779 261.701V265.949H31.0939V261.766C31.0939 261.313 30.9904 260.975 30.7834 260.752C30.5764 260.526 30.2287 260.412 29.7404 260.412C29.3381 260.412 29.0041 260.533 28.7385 260.776C28.4728 261.014 28.3185 261.336 28.2756 261.742V265.949H27.1857V261.795C27.1857 260.873 26.7346 260.412 25.8322 260.412C25.1213 260.412 24.6349 260.715 24.3732 261.32V265.949H23.2892V259.609H24.3146ZM33.5314 262.721C33.5314 262.1 33.6525 261.541 33.8947 261.045C34.1408 260.549 34.4807 260.166 34.9142 259.897C35.3517 259.627 35.8498 259.492 36.4084 259.492C37.2717 259.492 37.9689 259.791 38.5002 260.389C39.0353 260.986 39.3029 261.781 39.3029 262.774V262.85C39.3029 263.467 39.1838 264.022 38.9455 264.514C38.7111 265.002 38.3732 265.383 37.9318 265.656C37.4943 265.93 36.9904 266.067 36.4201 266.067C35.5607 266.067 34.8635 265.768 34.3283 265.17C33.7971 264.572 33.5314 263.781 33.5314 262.797V262.721ZM34.6213 262.85C34.6213 263.553 34.7834 264.117 35.1076 264.543C35.4357 264.969 35.8732 265.182 36.4201 265.182C36.9709 265.182 37.4084 264.967 37.7326 264.537C38.0568 264.104 38.2189 263.498 38.2189 262.721C38.2189 262.026 38.0529 261.463 37.7209 261.033C37.3928 260.6 36.9553 260.383 36.4084 260.383C35.8732 260.383 35.4416 260.596 35.1135 261.022C34.7853 261.447 34.6213 262.057 34.6213 262.85ZM41.6877 259.609L41.7228 260.406C42.2072 259.797 42.84 259.492 43.6213 259.492C44.9611 259.492 45.6369 260.248 45.6486 261.76V265.949H44.5646V261.754C44.5607 261.297 44.4553 260.959 44.2482 260.74C44.0451 260.522 43.7267 260.412 43.2932 260.412C42.9416 260.412 42.633 260.506 42.3674 260.693C42.1017 260.881 41.8947 261.127 41.7463 261.432V265.949H40.6623V259.609H41.6877Z" fill="#171717"/>
<path d="M8.69008 232.641C8.69008 233.91 8.47328 234.854 8.03969 235.471C7.60609 236.088 6.92836 236.397 6.00648 236.397C5.09633 236.397 4.4225 236.096 3.985 235.494C3.5475 234.889 3.32094 233.986 3.30531 232.787V231.34C3.30531 230.086 3.52211 229.154 3.9557 228.545C4.3893 227.936 5.06898 227.631 5.99477 227.631C6.91273 227.631 7.58852 227.926 8.02211 228.516C8.4557 229.102 8.67836 230.008 8.69008 231.234V232.641ZM7.60609 231.158C7.60609 230.24 7.47719 229.572 7.21938 229.154C6.96156 228.733 6.55336 228.522 5.99477 228.522C5.44008 228.522 5.03578 228.731 4.78188 229.149C4.52797 229.567 4.39711 230.209 4.3893 231.076V232.811C4.3893 233.733 4.52211 234.414 4.78773 234.856C5.05727 235.293 5.46352 235.512 6.00648 235.512C6.54164 235.512 6.93813 235.305 7.19594 234.891C7.45766 234.477 7.59438 233.824 7.60609 232.934V231.158Z" fill="#171717"/>
<path d="M6.90297 191.353H5.81313V184.128L3.62758 184.931V183.947L6.73305 182.781H6.90297V191.353Z" fill="#171717"/>
<path d="M8.93031 146.427H3.34047V145.647L6.29359 142.366C6.73109 141.87 7.03188 141.468 7.19594 141.159C7.36391 140.846 7.44789 140.524 7.44789 140.192C7.44789 139.747 7.31313 139.382 7.04359 139.096C6.77406 138.811 6.41469 138.669 5.96547 138.669C5.42641 138.669 5.00648 138.823 4.7057 139.132C4.40883 139.436 4.26039 139.862 4.26039 140.409H3.17641C3.17641 139.624 3.42836 138.989 3.93227 138.505C4.44008 138.02 5.11781 137.778 5.96547 137.778C6.75844 137.778 7.38539 137.987 7.84633 138.405C8.30727 138.819 8.53773 139.372 8.53773 140.063C8.53773 140.903 8.00258 141.903 6.93227 143.063L4.64711 145.542H8.93031V146.427Z" fill="#171717"/>
<path d="M4.91664 96.7071H5.73109C6.24281 96.6993 6.64516 96.5645 6.93813 96.3028C7.23109 96.0411 7.37758 95.6876 7.37758 95.2423C7.37758 94.2423 6.87953 93.7423 5.88344 93.7423C5.41469 93.7423 5.03969 93.877 4.75844 94.1466C4.48109 94.4122 4.34242 94.7657 4.34242 95.2071H3.25844C3.25844 94.5313 3.50453 93.9708 3.99672 93.5255C4.49281 93.0763 5.12172 92.8517 5.88344 92.8517C6.68813 92.8517 7.31898 93.0645 7.77602 93.4903C8.23305 93.9161 8.46156 94.5079 8.46156 95.2657C8.46156 95.6368 8.34047 95.9962 8.09828 96.3438C7.86 96.6915 7.53383 96.9513 7.11977 97.1231C7.58852 97.2716 7.94984 97.5177 8.20375 97.8614C8.46156 98.2052 8.59047 98.6251 8.59047 99.1212C8.59047 99.8868 8.34047 100.494 7.84047 100.943C7.34047 101.393 6.69008 101.617 5.8893 101.617C5.08852 101.617 4.43617 101.4 3.93227 100.967C3.43227 100.533 3.18227 99.961 3.18227 99.2501H4.27211C4.27211 99.6993 4.41859 100.059 4.71156 100.328C5.00453 100.598 5.39711 100.733 5.8893 100.733C6.41273 100.733 6.81313 100.596 7.09047 100.322C7.36781 100.049 7.50648 99.6563 7.50648 99.1446C7.50648 98.6485 7.35414 98.2677 7.04945 98.002C6.74477 97.7364 6.30531 97.5997 5.73109 97.5919H4.91664V96.7071Z" fill="#171717"/>
<path d="M7.91664 53.7084H9.10023V54.5932H7.91664V56.5737H6.8268V54.5932H2.94203V53.9545L6.76234 48.0424H7.91664V53.7084ZM4.1725 53.7084H6.8268V49.5248L6.69789 49.7592L4.1725 53.7084Z" fill="#171717"/>
<path d="M3.83852 7.3699L4.27211 3.116H8.6432V4.11795H5.19203L4.93422 6.44412C5.35219 6.19803 5.8268 6.07498 6.35805 6.07498C7.13539 6.07498 7.75258 6.33279 8.20961 6.84842C8.66664 7.36014 8.89516 8.0535 8.89516 8.9285C8.89516 9.8074 8.65688 10.5008 8.18031 11.0086C7.70766 11.5125 7.04555 11.7644 6.19398 11.7644C5.44008 11.7644 4.82484 11.5555 4.34828 11.1375C3.87172 10.7195 3.60023 10.1414 3.53383 9.40311H4.55922C4.62563 9.89139 4.79945 10.2605 5.0807 10.5105C5.36195 10.7566 5.73305 10.8797 6.19398 10.8797C6.69789 10.8797 7.09242 10.7078 7.37758 10.364C7.66664 10.0203 7.81117 9.54568 7.81117 8.94022C7.81117 8.3699 7.65492 7.91287 7.34242 7.56912C7.03383 7.22147 6.62172 7.04764 6.10609 7.04764C5.63344 7.04764 5.26234 7.15115 4.99281 7.35818L4.7057 7.59256L3.83852 7.3699Z" fill="#171717"/>
<path d="M97.3615 258.074V259.609H98.545V260.447H97.3615V264.379C97.3615 264.633 97.4142 264.824 97.5197 264.953C97.6251 265.078 97.8048 265.141 98.0587 265.141C98.1837 265.141 98.3556 265.117 98.5743 265.07V265.949C98.2892 266.027 98.0118 266.067 97.7423 266.067C97.2579 266.067 96.8927 265.92 96.6466 265.627C96.4005 265.334 96.2775 264.918 96.2775 264.379V260.447H95.1232V259.609H96.2775V258.074H97.3615ZM103.731 265.322C103.309 265.818 102.69 266.067 101.873 266.067C101.197 266.067 100.682 265.871 100.326 265.481C99.9747 265.086 99.797 264.504 99.7931 263.734V259.609H100.877V263.705C100.877 264.666 101.268 265.147 102.049 265.147C102.877 265.147 103.428 264.838 103.701 264.221V259.609H104.785V265.949H103.754L103.731 265.322ZM109.068 266.067C108.209 266.067 107.51 265.785 106.971 265.223C106.432 264.656 106.162 263.901 106.162 262.955V262.756C106.162 262.127 106.281 261.567 106.52 261.074C106.762 260.578 107.098 260.192 107.527 259.914C107.961 259.633 108.43 259.492 108.934 259.492C109.758 259.492 110.399 259.764 110.856 260.307C111.313 260.85 111.541 261.627 111.541 262.639V263.09H107.246C107.262 263.715 107.443 264.221 107.791 264.608C108.143 264.99 108.588 265.182 109.127 265.182C109.51 265.182 109.834 265.104 110.1 264.947C110.365 264.791 110.598 264.584 110.797 264.326L111.459 264.842C110.928 265.658 110.131 266.067 109.068 266.067ZM108.934 260.383C108.496 260.383 108.129 260.543 107.832 260.863C107.535 261.18 107.352 261.625 107.281 262.199H110.457V262.117C110.426 261.567 110.277 261.141 110.012 260.84C109.746 260.535 109.387 260.383 108.934 260.383Z" fill="#171717"/>
<path d="M165.903 264.455L167.122 259.609H168.206L166.36 265.949H165.482L163.941 261.145L162.441 265.949H161.562L159.722 259.609H160.8L162.048 264.356L163.525 259.609H164.398L165.903 264.455ZM171.944 266.067C171.085 266.067 170.386 265.785 169.847 265.223C169.308 264.656 169.038 263.901 169.038 262.955V262.756C169.038 262.127 169.157 261.567 169.396 261.074C169.638 260.578 169.974 260.192 170.403 259.914C170.837 259.633 171.306 259.492 171.81 259.492C172.634 259.492 173.275 259.764 173.732 260.307C174.189 260.85 174.417 261.627 174.417 262.639V263.09H170.122C170.138 263.715 170.319 264.221 170.667 264.608C171.019 264.99 171.464 265.182 172.003 265.182C172.386 265.182 172.71 265.104 172.976 264.947C173.241 264.791 173.474 264.584 173.673 264.326L174.335 264.842C173.804 265.658 173.007 266.067 171.944 266.067ZM171.81 260.383C171.372 260.383 171.005 260.543 170.708 260.863C170.411 261.18 170.228 261.625 170.157 262.199H173.333V262.117C173.302 261.567 173.153 261.141 172.888 260.84C172.622 260.535 172.263 260.383 171.81 260.383ZM175.413 262.727C175.413 261.754 175.644 260.973 176.105 260.383C176.566 259.789 177.169 259.492 177.915 259.492C178.657 259.492 179.245 259.746 179.679 260.254V256.949H180.763V265.949H179.767L179.714 265.27C179.28 265.801 178.677 266.067 177.903 266.067C177.169 266.067 176.569 265.766 176.105 265.164C175.644 264.563 175.413 263.777 175.413 262.809V262.727ZM176.497 262.85C176.497 263.568 176.646 264.131 176.943 264.537C177.239 264.943 177.65 265.147 178.173 265.147C178.86 265.147 179.362 264.838 179.679 264.221V261.309C179.355 260.711 178.857 260.412 178.185 260.412C177.653 260.412 177.239 260.617 176.943 261.027C176.646 261.438 176.497 262.045 176.497 262.85Z" fill="#171717"/>
<path d="M233.186 258.074V259.609H234.37V260.447H233.186V264.379C233.186 264.633 233.239 264.824 233.344 264.953C233.45 265.078 233.63 265.141 233.884 265.141C234.009 265.141 234.18 265.117 234.399 265.07V265.949C234.114 266.027 233.837 266.067 233.567 266.067C233.083 266.067 232.718 265.92 232.471 265.627C232.225 265.334 232.102 264.918 232.102 264.379V260.447H230.948V259.609H232.102V258.074H233.186ZM236.725 260.377C237.206 259.787 237.831 259.492 238.6 259.492C239.94 259.492 240.616 260.248 240.628 261.76V265.949H239.544V261.754C239.54 261.297 239.434 260.959 239.227 260.74C239.024 260.522 238.706 260.412 238.272 260.412C237.921 260.412 237.612 260.506 237.346 260.693C237.081 260.881 236.874 261.127 236.725 261.432V265.949H235.641V256.949H236.725V260.377ZM246.165 265.322C245.743 265.818 245.124 266.067 244.307 266.067C243.632 266.067 243.116 265.871 242.76 265.481C242.409 265.086 242.231 264.504 242.227 263.734V259.609H243.311V263.705C243.311 264.666 243.702 265.147 244.483 265.147C245.311 265.147 245.862 264.838 246.135 264.221V259.609H247.219V265.949H246.188L246.165 265.322Z" fill="#171717"/>
<path d="M296.648 265.949V260.447H295.646V259.609H296.648V258.959C296.648 258.279 296.83 257.754 297.193 257.383C297.556 257.012 298.07 256.826 298.734 256.826C298.984 256.826 299.232 256.859 299.478 256.926L299.42 257.805C299.236 257.77 299.041 257.752 298.834 257.752C298.482 257.752 298.211 257.856 298.019 258.063C297.828 258.266 297.732 258.559 297.732 258.942V259.609H299.086V260.447H297.732V265.949H296.648ZM303.351 260.582C303.187 260.555 303.01 260.541 302.818 260.541C302.107 260.541 301.625 260.844 301.371 261.449V265.949H300.287V259.609H301.342L301.359 260.342C301.715 259.776 302.219 259.492 302.871 259.492C303.082 259.492 303.242 259.52 303.351 259.574V260.582ZM305.531 265.949H304.447V259.609H305.531V265.949ZM304.359 257.928C304.359 257.752 304.412 257.604 304.517 257.483C304.627 257.361 304.787 257.301 304.998 257.301C305.209 257.301 305.369 257.361 305.478 257.483C305.588 257.604 305.642 257.752 305.642 257.928C305.642 258.104 305.588 258.25 305.478 258.367C305.369 258.484 305.209 258.543 304.998 258.543C304.787 258.543 304.627 258.484 304.517 258.367C304.412 258.25 304.359 258.104 304.359 257.928Z" fill="#171717"/>
<path d="M357.181 264.268C357.181 263.975 357.069 263.748 356.847 263.588C356.628 263.424 356.243 263.283 355.692 263.166C355.145 263.049 354.71 262.908 354.386 262.744C354.065 262.58 353.827 262.385 353.671 262.158C353.518 261.932 353.442 261.662 353.442 261.35C353.442 260.83 353.661 260.391 354.099 260.031C354.54 259.672 355.102 259.492 355.786 259.492C356.505 259.492 357.087 259.678 357.532 260.049C357.981 260.42 358.206 260.895 358.206 261.473H357.116C357.116 261.176 356.989 260.92 356.735 260.705C356.485 260.49 356.169 260.383 355.786 260.383C355.392 260.383 355.083 260.469 354.86 260.641C354.638 260.813 354.526 261.037 354.526 261.315C354.526 261.576 354.63 261.774 354.837 261.906C355.044 262.039 355.417 262.166 355.956 262.287C356.499 262.408 356.938 262.553 357.274 262.721C357.61 262.889 357.858 263.092 358.018 263.33C358.183 263.565 358.265 263.852 358.265 264.192C358.265 264.758 358.038 265.213 357.585 265.557C357.132 265.897 356.544 266.067 355.821 266.067C355.313 266.067 354.864 265.977 354.474 265.797C354.083 265.617 353.776 265.367 353.554 265.047C353.335 264.723 353.226 264.373 353.226 263.998H354.31C354.329 264.361 354.474 264.651 354.743 264.865C355.017 265.076 355.376 265.182 355.821 265.182C356.231 265.182 356.56 265.1 356.806 264.936C357.056 264.768 357.181 264.545 357.181 264.268ZM363.591 265.949C363.528 265.824 363.477 265.602 363.438 265.281C362.935 265.805 362.333 266.067 361.634 266.067C361.009 266.067 360.495 265.891 360.093 265.539C359.694 265.184 359.495 264.734 359.495 264.192C359.495 263.531 359.745 263.02 360.245 262.656C360.749 262.289 361.456 262.106 362.366 262.106H363.421V261.608C363.421 261.229 363.308 260.928 363.081 260.705C362.854 260.479 362.52 260.365 362.079 260.365C361.692 260.365 361.368 260.463 361.106 260.658C360.845 260.854 360.714 261.09 360.714 261.367H359.624C359.624 261.051 359.735 260.746 359.958 260.453C360.185 260.156 360.489 259.922 360.872 259.75C361.259 259.578 361.683 259.492 362.143 259.492C362.874 259.492 363.446 259.676 363.86 260.043C364.274 260.406 364.489 260.908 364.505 261.549V264.467C364.505 265.049 364.579 265.512 364.727 265.856V265.949H363.591ZM361.792 265.123C362.132 265.123 362.454 265.035 362.759 264.859C363.063 264.684 363.284 264.455 363.421 264.174V262.873H362.571C361.243 262.873 360.579 263.262 360.579 264.039C360.579 264.379 360.692 264.645 360.919 264.836C361.145 265.027 361.436 265.123 361.792 265.123ZM367.675 258.074V259.609H368.858V260.447H367.675V264.379C367.675 264.633 367.727 264.824 367.833 264.953C367.938 265.078 368.118 265.141 368.372 265.141C368.497 265.141 368.669 265.117 368.888 265.07V265.949C368.602 266.027 368.325 266.067 368.056 266.067C367.571 266.067 367.206 265.92 366.96 265.627C366.714 265.334 366.591 264.918 366.591 264.379V260.447H365.436V259.609H366.591V258.074H367.675Z" fill="#171717"/>
<path d="M421.58 264.268C421.58 263.975 421.469 263.748 421.246 263.588C421.027 263.424 420.642 263.283 420.092 263.166C419.545 263.049 419.109 262.908 418.785 262.744C418.465 262.58 418.226 262.385 418.07 262.158C417.918 261.932 417.842 261.662 417.842 261.35C417.842 260.83 418.06 260.391 418.498 260.031C418.939 259.672 419.502 259.492 420.185 259.492C420.904 259.492 421.486 259.678 421.931 260.049C422.381 260.42 422.605 260.895 422.605 261.473H421.515C421.515 261.176 421.388 260.92 421.135 260.705C420.885 260.49 420.568 260.383 420.185 260.383C419.791 260.383 419.482 260.469 419.26 260.641C419.037 260.813 418.926 261.037 418.926 261.315C418.926 261.576 419.029 261.774 419.236 261.906C419.443 262.039 419.816 262.166 420.355 262.287C420.898 262.408 421.338 262.553 421.674 262.721C422.01 262.889 422.258 263.092 422.418 263.33C422.582 263.565 422.664 263.852 422.664 264.192C422.664 264.758 422.437 265.213 421.984 265.557C421.531 265.897 420.943 266.067 420.22 266.067C419.713 266.067 419.263 265.977 418.873 265.797C418.482 265.617 418.176 265.367 417.953 265.047C417.734 264.723 417.625 264.373 417.625 263.998H418.709C418.728 264.361 418.873 264.651 419.142 264.865C419.416 265.076 419.775 265.182 420.22 265.182C420.631 265.182 420.959 265.1 421.205 264.936C421.455 264.768 421.58 264.545 421.58 264.268ZM427.99 265.322C427.568 265.818 426.949 266.067 426.133 266.067C425.457 266.067 424.941 265.871 424.586 265.481C424.234 265.086 424.056 264.504 424.052 263.734V259.609H425.136V263.705C425.136 264.666 425.527 265.147 426.308 265.147C427.136 265.147 427.687 264.838 427.961 264.221V259.609H429.045V265.949H428.013L427.99 265.322ZM431.722 259.609L431.758 260.406C432.242 259.797 432.875 259.492 433.656 259.492C434.996 259.492 435.672 260.248 435.683 261.76V265.949H434.599V261.754C434.595 261.297 434.49 260.959 434.283 260.74C434.08 260.522 433.761 260.412 433.328 260.412C432.976 260.412 432.668 260.506 432.402 260.693C432.136 260.881 431.929 261.127 431.781 261.432V265.949H430.697V259.609H431.722Z" fill="#171717"/>
<path d="M35.7714 234H429.771" stroke="#FAFAFA"/>
<path d="M35.8025 189H429.802" stroke="#FAFAFA"/>
<path d="M35.7714 144H429.771" stroke="#FAFAFA"/>
<path d="M35.713 99H429.713" stroke="#FAFAFA"/>
<path d="M35.713 54H429.713" stroke="#FAFAFA"/>
<path d="M35.713 9H429.713" stroke="#FAFAFA"/>
<g filter="url(#filter0_d)">
<path d="M112.025 166.199C112.025 169.252 109.529 171.728 106.451 171.728C103.373 171.728 100.878 169.252 100.878 166.199C100.878 163.145 103.373 160.67 106.451 160.67C109.529 160.67 112.025 163.145 112.025 166.199Z" fill="#171717"/>
</g>
<g opacity="0.3" filter="url(#filter1_f)">
<path fill-rule="evenodd" clip-rule="evenodd" d="M95.0231 138.684H131.359C133.568 138.684 135.359 140.475 135.359 142.684V152.542C135.359 154.752 133.568 156.542 131.359 156.542H117.182L116.533 157.066C116.387 157.184 116.177 157.184 116.031 157.066L115.383 156.542H95.0231C92.814 156.542 91.0231 154.752 91.0231 152.542V142.684C91.0231 140.475 92.814 138.684 95.0231 138.684Z" fill="#171717"/>
</g>
<path fill-rule="evenodd" clip-rule="evenodd" d="M84.9189 129.281H127.919C130.128 129.281 131.919 131.071 131.919 133.281V147.281C131.919 149.49 130.128 151.281 127.919 151.281H112.919L106.179 157.057C106.029 157.186 105.808 157.186 105.659 157.057L98.9189 151.281H84.9189C82.7097 151.281 80.9189 149.49 80.9189 147.281V133.281C80.9189 131.071 82.7097 129.281 84.9189 129.281Z" fill="white"/>
<path d="M97.4642 144.281V136.997H97.3704L95.2201 138.556V137.443L97.4701 135.826H98.5189V144.281H97.4642ZM101.678 146.431H100.799L101.361 143.097H102.545L101.678 146.431ZM107.116 144.48C106.315 144.48 105.653 144.255 105.13 143.806C104.606 143.353 104.321 142.761 104.274 142.031H105.311C105.358 142.488 105.548 142.857 105.88 143.138C106.216 143.415 106.632 143.554 107.128 143.554C107.694 143.554 108.149 143.376 108.493 143.021C108.841 142.665 109.015 142.199 109.015 141.62C109.015 141.042 108.841 140.574 108.493 140.214C108.149 139.851 107.7 139.669 107.145 139.669C106.763 139.669 106.419 139.753 106.114 139.921C105.81 140.085 105.571 140.318 105.399 140.618H104.409L104.872 135.826H109.589V136.769H105.698L105.458 139.482H105.552C105.962 139.001 106.558 138.761 107.339 138.761C108.143 138.761 108.8 139.025 109.308 139.552C109.815 140.079 110.069 140.759 110.069 141.591C110.069 142.451 109.796 143.148 109.249 143.683C108.702 144.214 107.991 144.48 107.116 144.48ZM112.021 144.281V135.456H113.029V138.96H113.123C113.283 138.605 113.527 138.331 113.855 138.14C114.187 137.949 114.592 137.853 115.068 137.853C115.74 137.853 116.271 138.06 116.662 138.474C117.052 138.884 117.248 139.456 117.248 140.191V144.281H116.24V140.437C116.24 139.32 115.754 138.761 114.781 138.761C114.226 138.761 113.795 138.923 113.486 139.247C113.181 139.568 113.029 139.999 113.029 140.542V144.281H112.021Z" fill="#171717"/>
<g filter="url(#filter2_d)">
<path d="M179.937 122.752C179.937 125.805 177.441 128.281 174.363 128.281C171.285 128.281 168.79 125.805 168.79 122.752C168.79 119.698 171.285 117.223 174.363 117.223C177.441 117.223 179.937 119.698 179.937 122.752Z" fill="#171717"/>
</g>
<g opacity="0.3" filter="url(#filter3_f)">
<path fill-rule="evenodd" clip-rule="evenodd" d="M162.935 95.237H199.271C201.48 95.237 203.271 97.0279 203.271 99.237V109.095C203.271 111.304 201.48 113.095 199.271 113.095H185.094L184.445 113.619C184.299 113.737 184.089 113.737 183.943 113.619L183.295 113.095H162.935C160.726 113.095 158.935 111.304 158.935 109.095V99.237C158.935 97.0279 160.726 95.237 162.935 95.237Z" fill="#171717"/>
</g>
<path fill-rule="evenodd" clip-rule="evenodd" d="M152.831 85.8333H195.831C198.04 85.8333 199.831 87.6241 199.831 89.8333V103.833C199.831 106.042 198.04 107.833 195.831 107.833H180.831L174.091 113.61C173.941 113.739 173.72 113.739 173.57 113.61L166.831 107.833H152.831C150.622 107.833 148.831 106.042 148.831 103.833V89.8333C148.831 87.6241 150.622 85.8333 152.831 85.8333Z" fill="white"/>
<path d="M162.417 94.7571C162.417 94.0071 162.671 93.3899 163.179 92.9055C163.691 92.4212 164.339 92.179 165.124 92.179C165.882 92.179 166.517 92.4075 167.028 92.8645C167.544 93.3177 167.802 93.8802 167.802 94.552C167.802 94.9934 167.677 95.427 167.427 95.8528C167.177 96.2786 166.706 96.8626 166.015 97.6048L163.982 99.7903V99.8841H167.943V100.833H162.47V100.107L165.394 96.9134C165.937 96.3235 166.298 95.8743 166.478 95.5657C166.657 95.2571 166.747 94.9329 166.747 94.593C166.747 94.1712 166.587 93.8177 166.267 93.5325C165.95 93.2434 165.56 93.0989 165.095 93.0989C164.599 93.0989 164.198 93.2513 163.894 93.5559C163.589 93.8606 163.437 94.261 163.437 94.7571V94.763H162.417V94.7571ZM170.475 102.984H169.596L170.158 99.6497H171.342L170.475 102.984ZM175.913 101.033C175.112 101.033 174.45 100.808 173.926 100.359C173.403 99.9055 173.118 99.3138 173.071 98.5833H174.108C174.155 99.0403 174.344 99.4095 174.676 99.6907C175.012 99.968 175.428 100.107 175.925 100.107C176.491 100.107 176.946 99.929 177.29 99.5735C177.637 99.218 177.811 98.7513 177.811 98.1731C177.811 97.595 177.637 97.1263 177.29 96.7669C176.946 96.4036 176.497 96.222 175.942 96.222C175.559 96.222 175.216 96.3059 174.911 96.4739C174.606 96.638 174.368 96.8704 174.196 97.1712H173.206L173.669 92.3782H178.385V93.3216H174.495L174.255 96.0345H174.348C174.759 95.554 175.354 95.3138 176.135 95.3138C176.94 95.3138 177.596 95.5774 178.104 96.1048C178.612 96.6321 178.866 97.3118 178.866 98.1438C178.866 99.0032 178.593 99.7005 178.046 100.236C177.499 100.767 176.788 101.033 175.913 101.033ZM180.818 100.833V92.0091H181.826V95.513H181.919C182.08 95.1575 182.324 94.8841 182.652 94.6927C182.984 94.5013 183.388 94.4055 183.865 94.4055C184.537 94.4055 185.068 94.6126 185.459 95.0266C185.849 95.4368 186.044 96.0091 186.044 96.7434V100.833H185.037V96.9895C185.037 95.8723 184.55 95.3138 183.578 95.3138C183.023 95.3138 182.591 95.4759 182.283 95.8001C181.978 96.1204 181.826 96.552 181.826 97.095V100.833H180.818Z" fill="#171717"/>
<g filter="url(#filter4_d)">
<path d="M308.736 53.0437C308.736 56.0973 306.241 58.5727 303.163 58.5727C300.084 58.5727 297.589 56.0973 297.589 53.0437C297.589 49.9902 300.084 47.5148 303.163 47.5148C306.241 47.5148 308.736 49.9902 308.736 53.0437Z" fill="#171717"/>
</g>
<g opacity="0.3" filter="url(#filter5_f)">
<path fill-rule="evenodd" clip-rule="evenodd" d="M291.734 25.5291H328.07C330.28 25.5291 332.07 27.32 332.07 29.5291V39.3873C332.07 41.5964 330.28 43.3873 328.07 43.3873H313.893L313.245 43.9108C313.098 44.0292 312.889 44.0292 312.742 43.9108L312.094 43.3873H291.734C289.525 43.3873 287.734 41.5964 287.734 39.3873V29.5291C287.734 27.32 289.525 25.5291 291.734 25.5291Z" fill="#171717"/>
</g>
<path fill-rule="evenodd" clip-rule="evenodd" d="M281.63 16.1254H324.63C326.839 16.1254 328.63 17.9163 328.63 20.1254V34.1254C328.63 36.3345 326.839 38.1254 324.63 38.1254H309.63L302.89 43.9023C302.741 44.0307 302.52 44.0307 302.37 43.9023L295.63 38.1254H281.63C279.421 38.1254 277.63 36.3345 277.63 34.1254V20.1254C277.63 17.9163 279.421 16.1254 281.63 16.1254Z" fill="white"/>
<path d="M300.311 31.1254V29.3734H296.192V28.4125C296.965 27.0375 298.172 25.1234 299.813 22.6703H301.342V28.4301H302.543V29.3734H301.342V31.1254H300.311ZM297.27 28.3656V28.4359H300.317V23.6488H300.247C299.332 24.977 298.34 26.5492 297.27 28.3656ZM304.437 31.1254V22.3012H305.445V25.8051H305.538C305.698 25.4496 305.943 25.1762 306.271 24.9848C306.603 24.7934 307.007 24.6977 307.484 24.6977C308.156 24.6977 308.687 24.9047 309.077 25.3188C309.468 25.7289 309.663 26.3012 309.663 27.0356V31.1254H308.656V27.2816C308.656 26.1645 308.169 25.6059 307.197 25.6059C306.642 25.6059 306.21 25.768 305.902 26.0922C305.597 26.4125 305.445 26.8441 305.445 27.3871V31.1254H304.437Z" fill="#171717"/>
<path d="M35.0429 233.466C34.66 233.864 34.6722 234.497 35.0702 234.88C35.4682 235.263 36.1012 235.25 36.4842 234.852L35.0429 233.466ZM242.631 190.798C249.093 190.798 254.296 188.551 258.489 184.624C262.656 180.722 265.787 175.197 268.221 168.68C273.083 155.663 275.277 138.361 277.172 121.211C279.075 103.988 280.677 86.9238 284.312 74.1455C286.128 67.7598 288.425 62.5496 291.443 58.9503C294.43 55.389 298.118 53.4041 302.838 53.4041V51.4041C297.45 51.4041 293.225 53.7128 289.911 57.6652C286.628 61.5796 284.235 67.1033 282.388 73.5983C278.695 86.5814 277.076 103.866 275.184 120.991C273.283 138.19 271.108 155.236 266.348 167.98C263.971 174.344 260.977 179.553 257.122 183.165C253.291 186.752 248.574 188.798 242.631 188.798V190.798ZM302.838 53.4041C312.244 53.4041 318.08 56.1849 322.23 60.2691C326.439 64.4105 328.991 69.9526 331.69 75.7152C334.358 81.4113 337.168 87.3129 341.921 91.7563C346.724 96.2467 353.424 99.1779 363.728 99.1779V97.1779C353.85 97.1779 347.664 94.3874 343.286 90.2953C338.859 86.1561 336.193 80.6141 333.501 74.8668C330.84 69.186 328.146 63.2847 323.633 58.8435C319.061 54.345 312.699 51.4041 302.838 51.4041V53.4041ZM363.728 99.1779C383.419 99.1779 393.623 110.213 401.977 121.513C406.125 127.124 409.893 132.921 414.087 137.249C418.324 141.621 423.142 144.66 429.49 144.66V142.66C423.884 142.66 419.551 140.013 415.524 135.857C411.453 131.657 407.844 126.084 403.585 120.324C395.127 108.884 384.404 97.1779 363.728 97.1779V99.1779ZM174.621 123.09C182.286 123.09 188.351 127.092 193.677 133.319C199.022 139.568 203.513 147.927 208.042 156.415C212.543 164.85 217.085 173.417 222.496 179.862C227.924 186.325 234.347 190.798 242.631 190.798V188.798C235.175 188.798 229.261 184.807 224.028 178.576C218.779 172.325 214.338 163.965 209.806 155.473C205.303 147.034 200.711 138.466 195.197 132.019C189.665 125.552 183.095 121.09 174.621 121.09V123.09ZM36.4842 234.852C40.2041 230.986 44.3726 224.804 49.0083 217.818C53.6677 210.795 58.8359 202.9 64.6027 195.479C76.1854 180.574 89.9254 167.933 106.36 167.933V165.933C88.8899 165.933 74.6192 179.331 63.0235 194.252C57.201 201.744 51.9881 209.709 47.3418 216.712C42.6719 223.75 38.6102 229.758 35.0429 233.466L36.4842 234.852ZM106.36 167.933C117.598 167.933 125.626 165.078 131.82 160.746C137.989 156.43 142.271 150.694 146.082 145.073C149.927 139.4 153.248 133.929 157.569 129.821C161.827 125.774 167.029 123.09 174.621 123.09V121.09C166.459 121.09 160.777 124.012 156.191 128.372C151.667 132.672 148.181 138.412 144.426 143.95C140.637 149.539 136.525 155.014 130.674 159.107C124.847 163.182 117.228 165.933 106.36 165.933V167.933Z" fill="#171717"/>
<g filter="url(#filter6_d)">
<path d="M41.4758 232.24C41.4758 235.294 38.9805 237.769 35.9023 237.769C32.8241 237.769 30.3287 235.294 30.3287 232.24C30.3287 229.187 32.8241 226.711 35.9023 226.711C38.9805 226.711 41.4758 229.187 41.4758 232.24Z" fill="#171717"/>
</g>
<g opacity="0.3" filter="url(#filter7_f)">
<path fill-rule="evenodd" clip-rule="evenodd" d="M24.4741 204.726H60.8102C63.0193 204.726 64.8102 206.516 64.8102 208.726V218.584C64.8102 220.793 63.0193 222.584 60.8102 222.584H46.6326L45.9845 223.107C45.8378 223.226 45.6284 223.226 45.4818 223.107L44.8337 222.584H24.4741C22.265 222.584 20.4741 220.793 20.4741 218.584V208.726C20.4741 206.516 22.265 204.726 24.4741 204.726Z" fill="#171717"/>
</g>
<path fill-rule="evenodd" clip-rule="evenodd" d="M14.3699 195.322H57.3699C59.579 195.322 61.3699 197.113 61.3699 199.322V213.322C61.3699 215.531 59.579 217.322 57.3699 217.322H42.3699L35.6302 223.099C35.4804 223.227 35.2594 223.227 35.1096 223.099L28.3699 217.322H14.3699C12.1607 217.322 10.3699 215.531 10.3699 213.322V199.322C10.3699 197.113 12.1607 195.322 14.3699 195.322Z" fill="white"/>
<path d="M32.1132 210.521C31.1601 210.521 30.4218 210.134 29.8984 209.361C29.375 208.588 29.1132 207.498 29.1132 206.091C29.1132 204.697 29.3769 203.611 29.9042 202.834C30.4316 202.056 31.1679 201.668 32.1132 201.668C33.0546 201.668 33.7871 202.058 34.3105 202.839C34.8378 203.621 35.1015 204.711 35.1015 206.109C35.1015 207.511 34.8398 208.597 34.3164 209.367C33.7968 210.136 33.0625 210.521 32.1132 210.521ZM30.6718 208.693C31.0078 209.298 31.4882 209.601 32.1132 209.601C32.7382 209.601 33.2148 209.3 33.5429 208.699C33.875 208.093 34.041 207.224 34.041 206.091C34.041 204.97 33.873 204.107 33.5371 203.502C33.205 202.896 32.7304 202.593 32.1132 202.593C31.496 202.593 31.0175 202.898 30.6777 203.507C30.3417 204.113 30.1738 204.974 30.1738 206.091C30.1738 207.22 30.3398 208.088 30.6718 208.693ZM37.0945 210.322V201.498H38.1023V205.002H38.196C38.3562 204.646 38.6003 204.373 38.9285 204.181C39.2605 203.99 39.6648 203.894 40.1414 203.894C40.8132 203.894 41.3445 204.101 41.7351 204.515C42.1257 204.925 42.321 205.498 42.321 206.232V210.322H41.3132V206.478C41.3132 205.361 40.8269 204.802 39.8542 204.802C39.2996 204.802 38.8679 204.964 38.5593 205.289C38.2546 205.609 38.1023 206.041 38.1023 206.584V210.322H37.0945Z" fill="#171717"/>
<g filter="url(#filter8_d)">
<path d="M247.849 189.478C247.849 192.531 245.354 195.006 242.276 195.006C239.198 195.006 236.702 192.531 236.702 189.478C236.702 186.424 239.198 183.949 242.276 183.949C245.354 183.949 247.849 186.424 247.849 189.478Z" fill="#171717"/>
</g>
<g opacity="0.3" filter="url(#filter9_f)">
<path fill-rule="evenodd" clip-rule="evenodd" d="M230.848 161.963H267.184C269.393 161.963 271.184 163.754 271.184 165.963V175.821C271.184 178.03 269.393 179.821 267.184 179.821H253.006L252.358 180.345C252.211 180.463 252.002 180.463 251.855 180.345L251.207 179.821H230.848C228.639 179.821 226.848 178.03 226.848 175.821V165.963C226.848 163.754 228.639 161.963 230.848 161.963Z" fill="#171717"/>
</g>
<path fill-rule="evenodd" clip-rule="evenodd" d="M220.743 152.559H263.743C265.953 152.559 267.743 154.35 267.743 156.559V170.559C267.743 172.768 265.953 174.559 263.743 174.559H248.743L242.004 180.336C241.854 180.464 241.633 180.464 241.483 180.336L234.743 174.559H220.743C218.534 174.559 216.743 172.768 216.743 170.559V156.559C216.743 154.35 218.534 152.559 220.743 152.559Z" fill="white"/>
<path d="M238.645 167.559V160.276H238.551L236.401 161.835V160.721L238.651 159.104H239.7V167.559H238.645ZM242.49 167.559V158.735H243.497V162.239H243.591C243.751 161.883 243.995 161.61 244.324 161.419C244.656 161.227 245.06 161.131 245.536 161.131C246.208 161.131 246.74 161.338 247.13 161.753C247.521 162.163 247.716 162.735 247.716 163.469V167.559H246.708V163.715C246.708 162.598 246.222 162.04 245.249 162.04C244.695 162.04 244.263 162.202 243.954 162.526C243.65 162.846 243.497 163.278 243.497 163.821V167.559H242.49Z" fill="#171717"/>
<g filter="url(#filter10_d)">
<path d="M369.623 98.0591C369.623 101.113 367.128 103.588 364.05 103.588C360.971 103.588 358.476 101.113 358.476 98.0591C358.476 95.0056 360.971 92.5302 364.05 92.5302C367.128 92.5302 369.623 95.0056 369.623 98.0591Z" fill="#171717"/>
</g>
<g opacity="0.3" filter="url(#filter11_f)">
<path fill-rule="evenodd" clip-rule="evenodd" d="M352.621 70.5445H388.957C391.167 70.5445 392.957 72.3354 392.957 74.5445V84.4027C392.957 86.6118 391.167 88.4027 388.957 88.4027H374.78L374.132 88.9262C373.985 89.0446 373.776 89.0446 373.629 88.9262L372.981 88.4027H352.621C350.412 88.4027 348.621 86.6118 348.621 84.4027V74.5445C348.621 72.3354 350.412 70.5445 352.621 70.5445Z" fill="#171717"/>
</g>
<path fill-rule="evenodd" clip-rule="evenodd" d="M342.517 61.1408H385.517C387.726 61.1408 389.517 62.9316 389.517 65.1408V79.1408C389.517 81.3499 387.726 83.1408 385.517 83.1408H370.517L363.777 88.9176C363.628 89.046 363.407 89.046 363.257 88.9176L356.517 83.1408H342.517C340.308 83.1408 338.517 81.3499 338.517 79.1408V65.1408C338.517 62.9316 340.308 61.1408 342.517 61.1408Z" fill="white"/>
<path d="M359.165 72.2443V71.3419H360.19C360.671 71.3419 361.063 71.2013 361.368 70.9201C361.676 70.6388 361.831 70.2794 361.831 69.8419C361.831 69.4123 361.682 69.0666 361.385 68.8048C361.089 68.5392 360.696 68.4064 360.208 68.4064C359.719 68.4064 359.325 68.5353 359.024 68.7931C358.723 69.047 358.551 69.4005 358.508 69.8537H357.483C357.538 69.1193 357.811 68.5412 358.303 68.1193C358.796 67.6974 359.444 67.4865 360.249 67.4865C360.733 67.4865 361.178 67.5861 361.585 67.7853C361.995 67.9806 362.317 68.2482 362.551 68.588C362.786 68.9279 362.903 69.299 362.903 69.7013C362.903 70.2052 362.772 70.631 362.51 70.9787C362.249 71.3263 361.885 71.5568 361.421 71.6701V71.7638C361.995 71.838 362.446 72.0627 362.774 72.4377C363.102 72.8087 363.266 73.2834 363.266 73.8615C363.266 74.5568 362.979 75.1447 362.405 75.6252C361.831 76.1017 361.126 76.34 360.29 76.34C359.43 76.34 358.729 76.1212 358.186 75.6837C357.643 75.2423 357.352 74.6603 357.313 73.9377H358.333C358.38 74.3869 358.579 74.7462 358.93 75.0158C359.282 75.2853 359.731 75.4201 360.278 75.4201C360.833 75.4201 361.288 75.2716 361.643 74.9748C362.003 74.6779 362.182 74.297 362.182 73.8322C362.182 73.3439 362.008 72.9572 361.661 72.672C361.313 72.3869 360.839 72.2443 360.237 72.2443H359.165ZM365.224 76.1408V67.3166H366.232V70.8205H366.326C366.486 70.465 366.73 70.1916 367.058 70.0002C367.39 69.8087 367.794 69.713 368.271 69.713C368.943 69.713 369.474 69.9201 369.865 70.3341C370.255 70.7443 370.451 71.3166 370.451 72.0509V76.1408H369.443V72.297C369.443 71.1798 368.957 70.6212 367.984 70.6212C367.429 70.6212 366.998 70.7834 366.689 71.1076C366.384 71.4279 366.232 71.8595 366.232 72.4025V76.1408H365.224Z" fill="#171717"/>
<g filter="url(#filter12_d)">
<path d="M435.779 144.277C435.779 147.33 433.283 149.806 430.205 149.806C427.127 149.806 424.632 147.33 424.632 144.277C424.632 141.223 427.127 138.748 430.205 138.748C433.283 138.748 435.779 141.223 435.779 144.277Z" fill="#171717"/>
</g>
<g opacity="0.3" filter="url(#filter13_f)">
<path fill-rule="evenodd" clip-rule="evenodd" d="M418.777 116.762H455.113C457.322 116.762 459.113 118.553 459.113 120.762V130.62C459.113 132.829 457.322 134.62 455.113 134.62H440.935L440.287 135.144C440.141 135.262 439.931 135.262 439.785 135.144L439.137 134.62H418.777C416.568 134.62 414.777 132.829 414.777 130.62V120.762C414.777 118.553 416.568 116.762 418.777 116.762Z" fill="#171717"/>
</g>
<path fill-rule="evenodd" clip-rule="evenodd" d="M408.673 107.358H451.673C453.882 107.358 455.673 109.149 455.673 111.358V125.358C455.673 127.567 453.882 129.358 451.673 129.358H436.673L429.933 135.135C429.783 135.264 429.562 135.264 429.412 135.135L422.673 129.358H408.673C406.464 129.358 404.673 127.567 404.673 125.358V111.358C404.673 109.149 406.464 107.358 408.673 107.358Z" fill="white"/>
<path d="M423.674 116.282C423.674 115.532 423.928 114.915 424.436 114.431C424.947 113.946 425.596 113.704 426.381 113.704C427.139 113.704 427.774 113.933 428.285 114.39C428.801 114.843 429.059 115.405 429.059 116.077C429.059 116.518 428.934 116.952 428.684 117.378C428.434 117.804 427.963 118.388 427.272 119.13L425.238 121.315V121.409H429.199V122.358H423.727V121.632L426.65 118.438C427.193 117.849 427.555 117.399 427.734 117.091C427.914 116.782 428.004 116.458 428.004 116.118C428.004 115.696 427.844 115.343 427.524 115.058C427.207 114.768 426.816 114.624 426.352 114.624C425.856 114.624 425.455 114.776 425.15 115.081C424.846 115.386 424.693 115.786 424.693 116.282V116.288H423.674V116.282ZM431.245 122.358V113.534H432.253V117.038H432.347C432.507 116.683 432.751 116.409 433.079 116.218C433.411 116.026 433.815 115.931 434.292 115.931C434.964 115.931 435.495 116.138 435.886 116.552C436.276 116.962 436.472 117.534 436.472 118.268V122.358H435.464V118.515C435.464 117.397 434.977 116.839 434.005 116.839C433.45 116.839 433.018 117.001 432.71 117.325C432.405 117.645 432.253 118.077 432.253 118.62V122.358H431.245Z" fill="#171717"/>
<defs>
<filter id="filter0_d" x="98.8777" y="159.67" width="15.1471" height="15.0578" filterUnits="userSpaceOnUse" color-interpolation-filters="sRGB">
<feFlood flood-opacity="0" result="BackgroundImageFix"/>
<feColorMatrix in="SourceAlpha" type="matrix" values="0 0 0 0 0 0 0 0 0 0 0 0 0 0 0 0 0 0 127 0"/>
<feOffset dy="1"/>
<feGaussianBlur stdDeviation="1"/>
<feColorMatrix type="matrix" values="0 0 0 0 0.215686 0 0 0 0 0.317647 0 0 0 0 1 0 0 0 0.2 0"/>
<feBlend mode="normal" in2="BackgroundImageFix" result="effect1_dropShadow"/>
<feBlend mode="normal" in="SourceGraphic" in2="effect1_dropShadow" result="shape"/>
</filter>
<filter id="filter1_f" x="71.0231" y="118.684" width="84.3361" height="58.4705" filterUnits="userSpaceOnUse" color-interpolation-filters="sRGB">
<feFlood flood-opacity="0" result="BackgroundImageFix"/>
<feBlend mode="normal" in="SourceGraphic" in2="BackgroundImageFix" result="shape"/>
<feGaussianBlur stdDeviation="10" result="effect1_foregroundBlur"/>
</filter>
<filter id="filter2_d" x="166.79" y="116.223" width="15.1471" height="15.0578" filterUnits="userSpaceOnUse" color-interpolation-filters="sRGB">
<feFlood flood-opacity="0" result="BackgroundImageFix"/>
<feColorMatrix in="SourceAlpha" type="matrix" values="0 0 0 0 0 0 0 0 0 0 0 0 0 0 0 0 0 0 127 0"/>
<feOffset dy="1"/>
<feGaussianBlur stdDeviation="1"/>
<feColorMatrix type="matrix" values="0 0 0 0 0.215686 0 0 0 0 0.317647 0 0 0 0 1 0 0 0 0.2 0"/>
<feBlend mode="normal" in2="BackgroundImageFix" result="effect1_dropShadow"/>
<feBlend mode="normal" in="SourceGraphic" in2="effect1_dropShadow" result="shape"/>
</filter>
<filter id="filter3_f" x="138.935" y="75.237" width="84.3361" height="58.4705" filterUnits="userSpaceOnUse" color-interpolation-filters="sRGB">
<feFlood flood-opacity="0" result="BackgroundImageFix"/>
<feBlend mode="normal" in="SourceGraphic" in2="BackgroundImageFix" result="shape"/>
<feGaussianBlur stdDeviation="10" result="effect1_foregroundBlur"/>
</filter>
<filter id="filter4_d" x="295.589" y="46.5148" width="15.1471" height="15.0578" filterUnits="userSpaceOnUse" color-interpolation-filters="sRGB">
<feFlood flood-opacity="0" result="BackgroundImageFix"/>
<feColorMatrix in="SourceAlpha" type="matrix" values="0 0 0 0 0 0 0 0 0 0 0 0 0 0 0 0 0 0 127 0"/>
<feOffset dy="1"/>
<feGaussianBlur stdDeviation="1"/>
<feColorMatrix type="matrix" values="0 0 0 0 0.215686 0 0 0 0 0.317647 0 0 0 0 1 0 0 0 0.2 0"/>
<feBlend mode="normal" in2="BackgroundImageFix" result="effect1_dropShadow"/>
<feBlend mode="normal" in="SourceGraphic" in2="effect1_dropShadow" result="shape"/>
</filter>
<filter id="filter5_f" x="267.734" y="5.52912" width="84.3361" height="58.4705" filterUnits="userSpaceOnUse" color-interpolation-filters="sRGB">
<feFlood flood-opacity="0" result="BackgroundImageFix"/>
<feBlend mode="normal" in="SourceGraphic" in2="BackgroundImageFix" result="shape"/>
<feGaussianBlur stdDeviation="10" result="effect1_foregroundBlur"/>
</filter>
<filter id="filter6_d" x="28.3287" y="225.711" width="15.1471" height="15.0578" filterUnits="userSpaceOnUse" color-interpolation-filters="sRGB">
<feFlood flood-opacity="0" result="BackgroundImageFix"/>
<feColorMatrix in="SourceAlpha" type="matrix" values="0 0 0 0 0 0 0 0 0 0 0 0 0 0 0 0 0 0 127 0"/>
<feOffset dy="1"/>
<feGaussianBlur stdDeviation="1"/>
<feColorMatrix type="matrix" values="0 0 0 0 0.215686 0 0 0 0 0.317647 0 0 0 0 1 0 0 0 0.2 0"/>
<feBlend mode="normal" in2="BackgroundImageFix" result="effect1_dropShadow"/>
<feBlend mode="normal" in="SourceGraphic" in2="effect1_dropShadow" result="shape"/>
</filter>
<filter id="filter7_f" x="0.474121" y="184.726" width="84.3361" height="58.4705" filterUnits="userSpaceOnUse" color-interpolation-filters="sRGB">
<feFlood flood-opacity="0" result="BackgroundImageFix"/>
<feBlend mode="normal" in="SourceGraphic" in2="BackgroundImageFix" result="shape"/>
<feGaussianBlur stdDeviation="10" result="effect1_foregroundBlur"/>
</filter>
<filter id="filter8_d" x="234.702" y="182.949" width="15.1471" height="15.0578" filterUnits="userSpaceOnUse" color-interpolation-filters="sRGB">
<feFlood flood-opacity="0" result="BackgroundImageFix"/>
<feColorMatrix in="SourceAlpha" type="matrix" values="0 0 0 0 0 0 0 0 0 0 0 0 0 0 0 0 0 0 127 0"/>
<feOffset dy="1"/>
<feGaussianBlur stdDeviation="1"/>
<feColorMatrix type="matrix" values="0 0 0 0 0.215686 0 0 0 0 0.317647 0 0 0 0 1 0 0 0 0.2 0"/>
<feBlend mode="normal" in2="BackgroundImageFix" result="effect1_dropShadow"/>
<feBlend mode="normal" in="SourceGraphic" in2="effect1_dropShadow" result="shape"/>
</filter>
<filter id="filter9_f" x="206.848" y="141.963" width="84.3361" height="58.4705" filterUnits="userSpaceOnUse" color-interpolation-filters="sRGB">
<feFlood flood-opacity="0" result="BackgroundImageFix"/>
<feBlend mode="normal" in="SourceGraphic" in2="BackgroundImageFix" result="shape"/>
<feGaussianBlur stdDeviation="10" result="effect1_foregroundBlur"/>
</filter>
<filter id="filter10_d" x="356.476" y="91.5302" width="15.1471" height="15.0578" filterUnits="userSpaceOnUse" color-interpolation-filters="sRGB">
<feFlood flood-opacity="0" result="BackgroundImageFix"/>
<feColorMatrix in="SourceAlpha" type="matrix" values="0 0 0 0 0 0 0 0 0 0 0 0 0 0 0 0 0 0 127 0"/>
<feOffset dy="1"/>
<feGaussianBlur stdDeviation="1"/>
<feColorMatrix type="matrix" values="0 0 0 0 0.215686 0 0 0 0 0.317647 0 0 0 0 1 0 0 0 0.2 0"/>
<feBlend mode="normal" in2="BackgroundImageFix" result="effect1_dropShadow"/>
<feBlend mode="normal" in="SourceGraphic" in2="effect1_dropShadow" result="shape"/>
</filter>
<filter id="filter11_f" x="328.621" y="50.5445" width="84.3361" height="58.4705" filterUnits="userSpaceOnUse" color-interpolation-filters="sRGB">
<feFlood flood-opacity="0" result="BackgroundImageFix"/>
<feBlend mode="normal" in="SourceGraphic" in2="BackgroundImageFix" result="shape"/>
<feGaussianBlur stdDeviation="10" result="effect1_foregroundBlur"/>
</filter>
<filter id="filter12_d" x="422.632" y="137.748" width="15.1471" height="15.0578" filterUnits="userSpaceOnUse" color-interpolation-filters="sRGB">
<feFlood flood-opacity="0" result="BackgroundImageFix"/>
<feColorMatrix in="SourceAlpha" type="matrix" values="0 0 0 0 0 0 0 0 0 0 0 0 0 0 0 0 0 0 127 0"/>
<feOffset dy="1"/>
<feGaussianBlur stdDeviation="1"/>
<feColorMatrix type="matrix" values="0 0 0 0 0.215686 0 0 0 0 0.317647 0 0 0 0 1 0 0 0 0.2 0"/>
<feBlend mode="normal" in2="BackgroundImageFix" result="effect1_dropShadow"/>
<feBlend mode="normal" in="SourceGraphic" in2="effect1_dropShadow" result="shape"/>
</filter>
<filter id="filter13_f" x="394.777" y="96.7621" width="84.3361" height="58.4705" filterUnits="userSpaceOnUse" color-interpolation-filters="sRGB">
<feFlood flood-opacity="0" result="BackgroundImageFix"/>
<feBlend mode="normal" in="SourceGraphic" in2="BackgroundImageFix" result="shape"/>
<feGaussianBlur stdDeviation="10" result="effect1_foregroundBlur"/>
</filter>
</defs>
</svg>
